<?xml version="1.0" encoding="utf-8"?>
<!-- Generator: Adobe Illustrator 27.4.0, SVG Export Plug-In . SVG Version: 6.00 Build 0)  -->
<svg version="1.1" id="Capa_1" xmlns="http://www.w3.org/2000/svg" xmlns:xlink="http://www.w3.org/1999/xlink" x="0px" y="0px"
	 viewBox="0 0 1069 1238.48" style="enable-background:new 0 0 1069 1238.48;" xml:space="preserve">
<style type="text/css">
	.st0{opacity:0.6;fill:#C8D400;enable-background:new    ;}
</style>
<g id="subregiones">
	<path class="st0" d="M461.31,614.78c-12.59,0-23.86-0.47-35.07,0.2c-5.28,0.32-10.62,2.35-15.57,4.46
		c-4.74,2.02-10.18,3.49-12.79,8.78c-0.68,1.38-1.07,2.93-1.87,4.23c-1.51,2.43-2.74,5.47-4.96,6.95
		c-4.55,3.02-8.48,7.77-14.67,7.35c-1.78-0.12-4.04-1.03-5.1-2.36c-2.13-2.66-4.72-5.75-5.01-8.86c-0.28-3.1,1.91-6.49,3.24-9.65
		c2.3-5.48,4.77-10.9,6.95-15.86c-7.15-4.58-13.55,0.06-19.87-1.23c-1.12-0.23-2.38,0.09-3.45-0.25c-0.73-0.23-1.19-1.64-1.86-1.71
		c-6.09-0.62-8.71-3.23-9.33-9.33c-0.99-9.67-1.33-19.5-3.48-28.91c-0.85-3.71-5.79-6.53-9-9.62c-0.97-0.93-2.39-1.4-3.59-2.1
		c-7.56-4.37-8.17-7.48-2.38-14.43c4.51-5.42,9.66-10.33,13.89-15.95c3.37-4.47,5.2-10.15,8.75-14.43
		c4.98-6.01,11.52-9.75,19.47-11.68c6.52-1.58,12.46-5.44,18.8-7.92c4.1-1.6,8.44-2.6,12.73-3.67c0.69-0.17,2.2,0.63,2.33,1.2
		c0.16,0.73-0.48,2.07-1.17,2.47c-5.51,3.24-7.24,9.31-10.79,14.01c-3.69,4.89-4.48,10.56-4.96,16.35c-0.07,0.81,0.53,1.65,0.74,2.5
		c1.71,6.67,3.14,13.43,5.22,19.99c0.82,2.58,2.63,5.55,4.84,6.72c1.4,0.74,4.59-1.17,6.61-2.47c3.22-2.07,5.57-2.83,10.01-1.55
		c6.88,1.99,14.71,1.76,21.46-2.34c3.44-2.09,6.68-2.64,10.31-0.34c4.64,2.94,5.31,7.03,3.79,11.77c-2.76,8.62-1.9,16.91,1.62,25.15
		c1.01,2.35,1.33,5.01,1.83,7.56c0.88,4.57,2.57,8.6,5.48,12.4C457.16,605.78,458.83,610.13,461.31,614.78z"/>
</g>
</svg>
