<?xml version="1.0" encoding="utf-8"?>
<!-- Generator: Adobe Illustrator 27.4.0, SVG Export Plug-In . SVG Version: 6.00 Build 0)  -->
<svg version="1.1" id="Capa_1" xmlns="http://www.w3.org/2000/svg" xmlns:xlink="http://www.w3.org/1999/xlink" x="0px" y="0px"
	 viewBox="0 0 1069 1238.48" style="enable-background:new 0 0 1069 1238.48;" xml:space="preserve">
<style type="text/css">
	.st0{opacity:0.6;fill:#C8D400;enable-background:new    ;}
</style>
<g id="subregiones">
	<path class="st0" d="M516.7,700.48c-2.07,0.96-3.32,1.94-4.66,2.1c-7.21,0.84-14.49,1.19-21.66,2.27
		c-5.71,0.86-11.26,3.32-16.95,3.6c-7.74,0.39-12.87,5.24-18.64,9c-4.75,3.09-8.52,6.96-14.97,7.75c-4.1,0.5-7.7,5.28-11.45,8.24
		c-1.92,1.52-3.68,3.25-5.92,5.25c-2.96-2.38-6-5.88-9.84-7.64c-4.17-1.91-7.41-4.14-9.09-8.36c-0.26-0.64-0.1-1.79,0.34-2.32
		c3.69-4.46,2.95-7.47-1.07-11.83c-3.49-3.79-7.96-5.46-12.19-7.68c-5.31-2.79-9.08-6.48-10.57-12.55
		c-1.95-7.94-4.49-15.74-6.52-23.66c-0.6-2.34-0.94-5.02-0.39-7.31c1.04-4.33,5.77-3.67,8.62-4.28c3.57-0.76,6.49-1.72,9.25-4.07
		c1.67-1.42,3.95-2.14,5.96-3.15c4.3-2.15,5.12-6.18,6.14-10.38c0.54-2.22,2.13-5.26,3.94-5.87c4.87-1.65,9.54-3.84,14.57-5.26
		c11.63-3.29,23.16-0.38,34.63-1.64c3.71-0.41,7.36-1.3,11.03-1.99c0.26-0.05,0.51-0.27,0.71-0.47c4.3-4.37,5.11-4.57,10.12-1.44
		c2.66,1.67,4.97,3.88,7.6,5.59c8.2,5.35,9.1,8.77,5.45,17.77c-1.56,3.84-2.44,8.06-3.02,12.19c-1.18,8.43,3.92,15.26,6.9,22.42
		C499.14,686.63,507.43,693.45,516.7,700.48z"/>
</g>
</svg>
