<?xml version="1.0" encoding="utf-8"?>
<!-- Generator: Adobe Illustrator 27.4.0, SVG Export Plug-In . SVG Version: 6.00 Build 0)  -->
<svg version="1.1" id="Capa_1" xmlns="http://www.w3.org/2000/svg" xmlns:xlink="http://www.w3.org/1999/xlink" x="0px" y="0px"
	 viewBox="0 0 1069 1238.48" style="enable-background:new 0 0 1069 1238.48;" xml:space="preserve">
<style type="text/css">
	.st0{opacity:0.6;fill:#C8D400;enable-background:new    ;}
</style>
<g id="subregiones">
	<path class="st0" d="M150.25,926.1c-2.33-4.4-5.26-9.27-3.66-15.83c0.59-2.42-0.95-5.69-2.27-8.17c-4.26-8-6.14-15.86-2.45-24.83
		c2.33-5.67,8.16-5.27,11.71-8.55c1.33-1.23,3.69-2.13,3.99-3.53c1.05-4.91,2.15-10.02,1.86-14.97c-0.45-7.8-1.89-15.47-6.35-22.39
		c-2.41-3.73-3.94-8.21-5.02-12.56c-1.96-7.91,2.14-14,8.23-17.89c4.92-3.14,6.27-7.57,7.52-12.47c8.39-0.01,15.1,3.94,22.37,6.42
		c6.79,2.32,14.66,1.49,22.05,2.01c0.42,0.03,1.09-0.58,1.27-0.43c4.32,3.5,8.38-0.99,12.72-0.38c4.03,0.57,8.17-0.15,10.83,4.03
		c0.32,0.51,1.8,0.28,2.06,0.31c0.98,3.92,2.11,7.33,2.59,10.83c0.31,2.27-0.25,4.68-0.57,7.01c-1,7.24-2.5,14.45-2.94,21.73
		c-0.26,4.23,0.6,8.74,1.92,12.82c3.24,10.02,2.79,20.72,7.53,30.67c4.12,8.65,4.87,18.88,7.47,28.31
		c1.89,6.82,4.43,13.46,6.57,20.21c0.88,2.78,1.72,5.61,2.13,8.49c1.21,8.44,2.25,16.91,3.23,25.39c0.24,2.07,0.65,4.76-2.93,4.33
		c-4.08-0.5-8.13-1.62-12.21-1.69c-6.02-0.11-9-4.97-13.26-7.75c-2.44-1.6-4.16-4.28-6.29-6.4c-4.49-4.46-4.38-10.93,0.67-16.17
		c1.56-1.62,3.2-3.74,3.52-5.83c0.74-4.84-2.49-7.62-8.11-8.12c-2.22-0.2-4.37-1.12-6.58-1.45c-1.14-0.17-2.38,0.18-3.56,0.39
		c-0.87,0.15-1.73,0.7-2.57,0.64c-4.36-0.34-8.72-0.76-13.06-1.29c-3.81-0.46-7.58-1.4-11.4-1.56c-6.86-0.3-13.7,0.32-19.83,3.77
		c-3.4,1.92-6.51,3.05-10.59,1.94C155.25,922.71,152.96,924.81,150.25,926.1z"/>
</g>
</svg>
