<?xml version="1.0" encoding="utf-8"?>
<!-- Generator: Adobe Illustrator 27.4.0, SVG Export Plug-In . SVG Version: 6.00 Build 0)  -->
<svg version="1.1" id="Capa_1" xmlns="http://www.w3.org/2000/svg" xmlns:xlink="http://www.w3.org/1999/xlink" x="0px" y="0px"
	 viewBox="0 0 1069 1238.48" style="enable-background:new 0 0 1069 1238.48;" xml:space="preserve">
<style type="text/css">
	.st0{opacity:0.6;fill:#C8D400;enable-background:new    ;}
</style>
<g id="subregiones">
	<path class="st0" d="M414.73,949.89c-5.5-0.34-10.09-0.92-14.66-0.83c-6.4,0.12-12.78,0.75-19.18,1.11
		c-4.31,0.24-8.64,0.19-12.92,0.66c-3.59,0.4-7.48,0.67-10.54,2.29c-2.36,1.25-4.98,4.45-5.12,6.91c-0.23,4.21-1.42,7.52-3.82,10.8
		c-2.44,3.34-4.54,6.94-7.17,11.03c-4.8-2.72-8.74-6.13-10.72-11.68c-1.37-3.82-2.41-7.78-6.61-10.03
		c-4.12-2.21-7.72-1.7-10.84,1.65c-3.19,3.42-6.81,5.64-12.25,5.42c-4.43-0.18-8.95,2.22-13.46,3.38c-0.92,0.24-1.96,0.03-3.32,0.03
		c0-3.18-0.17-6.27,0.03-9.34c0.52-7.74,1.42-15.47,1.69-23.22c0.09-2.65-0.47-5.94-2.02-7.93c-4.72-6.06-5.21-13.35-5.47-20.17
		c-0.27-7.26-3.48-12.84-6.65-18.66c-5.43-9.96-12.15-19.37-11.82-31.5c0.03-1.02-0.68-2.06-1.38-4.03
		c4.97,1.25,9.18,2.39,13.43,3.36c5.58,1.27,11.35,1.92,16.74,3.73c4.78,1.61,8.87,3.76,12.05,9.03
		c4.67,7.74,11.46,14.5,18.41,20.41c2.91,2.47,8.59,2.31,12.96,2.14c2-0.08,4.18-2.82,5.77-4.77c3.64-4.46,7.14-8.9,12.79-11.12
		c1.07-0.42,1.47-2.47,2.23-3.74c4.08-6.75,11.43-7.75,17.97-10.11c2.52-0.91,5.2-1.46,7.86-1.9c3.2-0.53,5.31,0.21,7.39,3.56
		c4.52,7.28,3.88,15.6,6.24,23.16c1.9,6.09,6.07,11.77,10.27,16.76c4.49,5.34,7.61,10.78,7.38,17.83
		c-0.15,4.74,0.46,8.93,3.41,13.21C415.25,940,414.3,944.56,414.73,949.89z"/>
</g>
</svg>
