<?xml version="1.0" encoding="utf-8"?>
<!-- Generator: Adobe Illustrator 27.4.0, SVG Export Plug-In . SVG Version: 6.00 Build 0)  -->
<svg version="1.1" id="Capa_1" xmlns="http://www.w3.org/2000/svg" xmlns:xlink="http://www.w3.org/1999/xlink" x="0px" y="0px"
	 viewBox="0 0 1069 1238.48" style="enable-background:new 0 0 1069 1238.48;" xml:space="preserve">
<style type="text/css">
	.st0{opacity:0.6;fill:#C8D400;enable-background:new    ;}
</style>
<g id="subregiones">
	<path class="st0" d="M573.09,971.71c-1.73-0.34-3.2-0.83-4.69-0.88c-6.61-0.25-12.5-1.28-18.33-5.59
		c-4.85-3.59-12.11-3.71-17.65-6.63c-6.22-3.28-12.43-1.25-18.61-1.74c-5.48-0.43-8.39-2.27-11.1-7.16
		c-2.43-4.4-4.98-8.99-8.5-12.45c-3.01-2.95-7.67-4.13-11.25-6.6c-6.31-4.37-12.92-8.62-16.41-15.86
		c-2.26-4.69-3.64-9.82-6.11-14.38c-2.19-4.02-4.87-8.04-8.22-11.08c-3.31-3.01-5.27-6.2-4.18-10.32c1.54-5.86-2.3-8.75-5.5-12.29
		c-3.3-3.65-7.37-6.86-6.75-12.87c0.17-1.61-1.78-3.86-3.32-5.14c-4.22-3.53-5.09-9.49-1.28-15.51c2.45-3.88,5.54-7.36,8.48-10.92
		c4.46-5.4,9.33-6.4,16.21-3.45c16.29,6.99,33.21,5.96,49.96,1.35c8.17-2.25,16.29-4.81,24.19-7.86
		c14.82-5.73,30.24-6.16,45.77-5.87c1.25,0.02,3.22,0.97,3.58,1.96c1.57,4.24,3.55,8.62,3.71,13.01c0.17,4.71,1.59,8.25,4.54,11.67
		c3.43,3.98,7.35,7.83,9.62,12.44c2.67,5.41,3.8,11.58,5.58,17.42c0.56,1.84,1.36,3.66,1.52,5.54c0.36,4.13,1.63,8.75,0.32,12.37
		c-7.33,20.34-14.84,40.64-23.29,60.54C577.16,951.3,572.71,960.84,573.09,971.71z"/>
</g>
</svg>
