<?xml version="1.0" encoding="utf-8"?>
<!-- Generator: Adobe Illustrator 27.4.0, SVG Export Plug-In . SVG Version: 6.00 Build 0)  -->
<svg version="1.1" id="Capa_1" xmlns="http://www.w3.org/2000/svg" xmlns:xlink="http://www.w3.org/1999/xlink" x="0px" y="0px"
	 viewBox="0 0 1069 1238.48" style="enable-background:new 0 0 1069 1238.48;" xml:space="preserve">
<style type="text/css">
	.st0{opacity:0.6;fill:#C8D400;enable-background:new    ;}
</style>
<g id="subregiones">
	<path class="st0" d="M214.61,1104.88c-4.99,0-10.79,0.01-16.59,0c-4.35-0.01-8.83,0.56-13.02-0.28c-3.79-0.76-7.34-2.96-10.88-4.74
		c-9.43-4.73-17.69-12.45-29.9-11.27c-0.62-7.55,2.64-14.14,4.35-21.03c0.78-3.16,0.91-6.47,1.52-9.68c0.54-2.85,0.91-5.85,2.1-8.44
		c2.32-5.03,5.16-9.81,8.18-15.43c6.86,1.36,14.49,2.55,21.94,4.45c7.68,1.96,11.52-1.51,10.81-9.32
		c-0.47-5.18,0.49-10.53,1.1-15.77c1.14-9.79,3.19-19.53,3.48-29.33c0.17-5.56,0.32-11.55-3.51-16.95
		c-3.59-5.06-8.48-5.46-13.52-6.25c-3.85-0.61-7.78-0.76-11.65-1.25c-3.57-0.45-4.8-3.21-6.11-6.14c-1.89-4.26-4.34-8.28-6.34-12.5
		c-1.44-3.03-2.54-6.22-3.75-9.25c0.75-0.49,1.02-0.82,1.27-0.81c7.2,0.56,13.77-1.32,20.3-4.31c6.38-2.93,13.02-2.54,19.85-0.53
		c3.86,1.14,8.25,0.45,12.39,0.7c5.64,0.34,11.27,0.8,17.29,2.12c-5.4,4.41-6.04,9.6-6.07,15.56c-0.03,6.31,3.08,10.31,7.14,14.24
		c5.34,5.15,7,15.72,3.72,22.75c-0.19,0.4-0.44,0.85-0.4,1.26c1.09,11.93-1.48,23.46-3.78,35.02c-0.26,1.3-0.52,2.63-0.48,3.94
		c0.37,15.3-0.92,30.43-3.71,45.5C218.07,1079.32,216.59,1091.63,214.61,1104.88z"/>
</g>
</svg>
