<?xml version="1.0" encoding="utf-8"?>
<!-- Generator: Adobe Illustrator 27.4.0, SVG Export Plug-In . SVG Version: 6.00 Build 0)  -->
<svg version="1.1" id="Capa_1" xmlns="http://www.w3.org/2000/svg" xmlns:xlink="http://www.w3.org/1999/xlink" x="0px" y="0px"
	 viewBox="0 0 1069 1238.48" style="enable-background:new 0 0 1069 1238.48;" xml:space="preserve">
<style type="text/css">
	.st0{opacity:0.6;fill:#C8D400;enable-background:new    ;}
</style>
<g id="subregiones">
	<path class="st0" d="M733.42,209.22c-1.09,7.69-3.15,14.64,2,22.31c2.86,4.25,1.88,11.17,2.28,16.9c0.07,0.98-1.76,2-2.49,3.14
		c-3.07,4.82-2.58,10.14-1.47,15.27c0.81,3.76,2.54,7.34,3.94,10.97c1.91,5-1.52,9.24-6.44,11.25c-6.52,2.66-12.36,6.98-19.12,10.96
		c-2.78-3.26-6.39-7.41-9.91-11.63c-2.87-3.43-6.03-5.7-10.93-5.85c-3.06-0.09-6.04-2.11-9.08-3.19
		c-9.69-3.43-19.24-7.32-29.56-8.59c-1.12-0.14-2.23-0.45-3.33-0.71c-7.34-1.76-14.62-3.81-22.02-5.21
		c-4.64-0.88-9.45-1.06-14.19-1.07c-9.24-0.03-18.5,0.07-27.73,0.5c-11.52,0.53-22.29,4.32-32.79,8.76
		c-3.77,1.59-6.84,5.11-10.67,6.19c-6.46,1.82-11.12,5.55-15.49,10.29c-1.5,1.62-4.02,2.83-6.23,3.16
		c-11.25,1.69-12.79,2.99-15.27,14.35c-0.1,0.44-0.44,0.84-0.86,1.59c-0.88-0.51-1.95-0.77-2.4-1.45c-3.18-4.7-8.13-7.05-13.16-7.95
		c-5.71-1.03-6.84-5.36-7.98-9.16c-2.4-8.04-3.72-16.39-5.72-24.55c-1.23-5.02-5.63-6.85-9.83-8.63c-5.2-2.21-10.81-3.68-15.56-6.59
		c-2.5-1.53-3.91-5.28-5.2-8.29c-2.74-6.43-3.78-12.76,1.32-18.95c1.41-1.71,1.64-5.03,1.2-7.39c-0.34-1.84-2.73-3.22-3.88-5.01
		c-1.1-1.7-1.77-3.66-2.64-5.51c1.83-0.8,3.63-2.21,5.49-2.3c6.32-0.31,12.67,0.09,18.98-0.23c7.87-0.4,16.17,0.14,23.46-2.25
		c8.16-2.67,17.52-3.35,23.95-10.7c2-2.29,6.14-2.56,8.85-4.41c7.88-5.36,13.81-12.47,18.82-20.64c2.41-3.94,6.53-6.95,10.22-9.95
		c6.32-5.13,12.53-10.57,19.53-14.62c4.09-2.37,8.82-3.68,12.59-6.88c0.41-0.35,3.06,0.82,3.51,1.81c3.23,7.1,6.35,14.27,9.13,21.56
		c1.79,4.71,2.92,9.66,4.4,14.49c0.22,0.71,0.64,1.4,1.11,1.98c4.62,5.73,8.95,11.74,14.06,17c2.3,2.37,6.29,3,9.31,4.79
		c6.92,4.1,14.7,0.01,21.49,2.18c9.73,3.1,19.46,1.43,29.15,1.58c7.98,0.12,16.01-1.86,23.98-1.6c5.81,0.19,11.73,2.03,17.28,4.04
		C721.81,203.25,727.73,206.55,733.42,209.22z"/>
</g>
</svg>
