<?xml version="1.0" encoding="utf-8"?>
<!-- Generator: Adobe Illustrator 27.4.0, SVG Export Plug-In . SVG Version: 6.00 Build 0)  -->
<svg version="1.1" id="Capa_1" xmlns="http://www.w3.org/2000/svg" xmlns:xlink="http://www.w3.org/1999/xlink" x="0px" y="0px"
	 viewBox="0 0 1069 1238.48" style="enable-background:new 0 0 1069 1238.48;" xml:space="preserve">
<style type="text/css">
	.st0{opacity:0.6;fill:#C8D400;enable-background:new    ;}
</style>
<g id="subregiones">
	<path class="st0" d="M763.29,846.61c-3.14,1.99-6.37,3.85-9.39,5.99c-4.44,3.14-9.16,6.07-13.02,9.84
		c-7.4,7.22-6.77,16.74-6.56,26.12c0.07,2.89-1.06,5.83-1.8,8.71c-0.73,2.83-1.49,5.66-2.53,8.38c-2.57,6.71-5.35,13.34-7.97,20.03
		c-0.79,2.02-1.73,4.11-1.89,6.22c-0.3,3.97-0.3,8-0.02,11.98c0.61,8.9-4.47,14.94-9.86,21.02c-4.65,5.25-10.89,10.19-12.88,16.4
		c-2,6.25-6.91,9.51-9.78,14.57c-0.83,1.46-5.16,0.94-7.63,1.29c-1.33,7.58-2.47,15.29-4.12,22.88c-0.53,2.42-2.07,4.82-3.7,6.76
		c-2.61,3.1-4.43,6.19-4.17,10.48c0.19,3.21,0,2.73-2.95,1.84c-7.96-2.4-13.21-8.41-19.26-13.43c-1.94-1.61-4.61-1.62-6.52-4.29
		c-3.04-4.26-7.7-7.33-11.46-11.13c-3.88-3.92-4.41-13.26-3.25-19.85c2.05-11.65,7-22.57,7.67-34.6c0.37-6.7,5.85-11.29,10.95-14.89
		c5.72-4.03,12.22-7.02,18.54-10.11c12.96-6.34,17.99-17.72,20.22-30.99c1.98-11.81,3.94-23.62,5.97-35.42
		c0.51-2.97,0.38-7.5,2.1-8.43c2.07-1.11,5.8,0.83,8.8,1.5c4.7,1.04,9.34,2.44,14.09,3.12c10.22,1.46,19.77-0.28,28.66-6.02
		c4.86-3.14,10.29-5.43,15.56-7.89c1.7-0.79,3.74-0.88,5.62-1.29C762.91,845.81,763.1,846.21,763.29,846.61z"/>
</g>
</svg>
