<?xml version="1.0" encoding="utf-8"?>
<!-- Generator: Adobe Illustrator 27.4.0, SVG Export Plug-In . SVG Version: 6.00 Build 0)  -->
<svg version="1.1" id="Capa_1" xmlns="http://www.w3.org/2000/svg" xmlns:xlink="http://www.w3.org/1999/xlink" x="0px" y="0px"
	 viewBox="0 0 1069 1238.48" style="enable-background:new 0 0 1069 1238.48;" xml:space="preserve">
<style type="text/css">
	.st0{opacity:0.6;fill:#C8D400;enable-background:new    ;}
</style>
<g id="subregiones">
	<path class="st0" d="M806.02,1026.11c0.47-0.21,0.93-0.43,1.28-0.58c-12.5,0-25.14,0-37.45,0c0.11,0.07,0.59,0.34,1.09,0.63
		c-0.3,0.16-0.57,0.43-0.85,0.44c-3.16,0.1-6.34,0.02-9.49,0.24c-8.32,0.58-16.83,0.43-24.86,2.31c-3.69,0.87-7.33,5.33-9.34,9.05
		c-2.24,4.14-3.88,6.88-9.3,6.77c-3.72-0.08-6.61,2.93-7.82,6.86c-0.39,1.27-0.63,2.91-1.54,3.59c-0.82,0.62-3.02,0.7-3.63,0.08
		c-2.09-2.16-3.81-4.69-5.56-7.15c-5.03-7.11-10-14.25-14.98-21.39c-0.36-0.51-0.94-1.18-0.84-1.66c0.91-4.31,2.06-8.57,2.89-12.9
		c0.43-2.26,0.35-4.61,0.46-6.28c8.23-5.03,14.34-11.19,17.91-19.79c0.88-2.13,2.34-4.07,3.77-5.91
		c5.39-6.96,11.3-13.55,16.17-20.85c3.72-5.56,5.05-12.56,3.77-18.99c-1.09-5.48,0.14-9.41,2.48-14.13
		c3.3-6.65,4.49-14.38,7.98-20.9c4.05-7.57,2.84-15.51,4.2-23.24c1.25-7.13,4.66-14.21,12.01-18.02c3.99-2.07,8.06-4.1,11.69-6.71
		c3.04-2.19,6.16-4.79,8.02-7.94c2.04-3.46,4.33-4.92,8.2-5.25c6.62-0.57,13.17-1.78,19.78-2.44c2.21-0.22,4.72-0.07,6.73,0.78
		c13.38,5.64,27.44,7.07,41.63,5.91c4.81-0.39,9.75-3.17,13.98-5.88c6.67-4.28,12.79-9.42,20.2-13.6c-1.23,2.09-2.03,4.68-3.77,6.19
		c-4.13,3.59-8.65,6.73-13.1,9.92c-3.11,2.23-6.46,4.12-9.54,6.39c-3.44,2.53-4.26,5.97-4.68,10.35
		c-1.04,10.95,4.11,18.01,11.68,25.01c11.32,10.46,16.96,23.83,18.16,39.48c0.96,12.55-6.63,21.29-11.32,31.43
		c-2.29,4.94-5.42,10.11-5.61,15.27c-0.31,8.41-4.34,14.16-10.48,18.23c-10.04,6.66-16.95,16.39-25.69,24.29
		c-2.68,2.42-4.39,5.9-6.79,8.68c-0.95,1.1-2.54,2.18-3.9,2.26c-4.45,0.28-8.93,0.11-13.39,0.11
		C806.12,1026.54,806.07,1026.33,806.02,1026.11z"/>
</g>
</svg>
