<?xml version="1.0" encoding="utf-8"?>
<!-- Generator: Adobe Illustrator 27.4.0, SVG Export Plug-In . SVG Version: 6.00 Build 0)  -->
<svg version="1.1" id="Capa_1" xmlns="http://www.w3.org/2000/svg" xmlns:xlink="http://www.w3.org/1999/xlink" x="0px" y="0px"
	 viewBox="0 0 1069 1238.48" style="enable-background:new 0 0 1069 1238.48;" xml:space="preserve">
<style type="text/css">
	.st0{opacity:0.6;fill:#C8D400;enable-background:new    ;}
</style>
<g id="subregiones">
	<path class="st0" d="M777.71,581.11c12.13-2.27,23.29-0.67,34.42,1.63c8.08,1.67,16.17,1.4,24.21-0.09
		c7.16-1.33,9.17,0.45,8.81,8.45c-0.49,10.94,0.03,21.67,4.5,31.99c1.58,3.65,2.18,7.81,2.71,11.81c0.87,6.51,5.59,10.87,8.68,16.08
		c3.95,6.66,2.62,13.12,1.4,19.97c-2.02,11.27-9.94,19.05-15.94,27.96c-2.98,4.42-6.35,8.6-9.75,12.71
		c-3.21,3.88-6.6,7.28-12.43,7.33c-5.52,0.05-11.25,0.47-16.5,2.02c-7.25,2.14-12.31,7.63-15.54,14.36
		c-1.09,2.27-1.75,3.43-4.45,3.28c-13.96-0.76-27.93-1.28-41.88-2.01c-5.86-0.31-8.34-4.54-5.24-9.41
		c4.75-7.47,5.95-15.81,7.45-24.26c1-5.62,3.63-10.94,5.37-16.44c0.68-2.15,1.37-4.45,1.29-6.66c-0.34-8.91,6.28-13.61,11.6-18.79
		c2.21-2.15,3.66-3.82,3.58-6.83c-0.08-3.16,0.31-6.36-0.08-9.47c-0.66-5.25,2.17-8.07,6.24-10.3c0.48-0.26,1.18-0.67,1.24-1.09
		c1.5-11.46,9-21.64,7.42-33.67c-0.49-3.78-2.24-7.43-3.61-11.06C780.27,586.19,779.01,583.9,777.71,581.11z"/>
</g>
</svg>
