<?xml version="1.0" encoding="utf-8"?>
<!-- Generator: Adobe Illustrator 27.4.0, SVG Export Plug-In . SVG Version: 6.00 Build 0)  -->
<svg version="1.1" id="Capa_1" xmlns="http://www.w3.org/2000/svg" xmlns:xlink="http://www.w3.org/1999/xlink" x="0px" y="0px"
	 viewBox="0 0 1069 1238.48" style="enable-background:new 0 0 1069 1238.48;" xml:space="preserve">
<style type="text/css">
	.st0{opacity:0.6;fill:#C8D400;enable-background:new    ;}
</style>
<g id="subregiones">
	<path class="st0" d="M814.35,476.25c-3.65,3.44-7.16,6.48-10.36,9.82c-4.62,4.83-7.58,10.45-8.61,17.27
		c-0.75,4.96,1.08,8.04,5.27,9.62c8.36,3.15,15.63,8.05,21.89,14.17c3.38,3.31,5.78,7.77,7.96,12.05c0.44,0.86-1.81,3.69-3.38,4.87
		c-5.95,4.47-5.72,7.89-0.15,12.73c4.11,3.56,7.37,8.2,10.53,12.7c0.65,0.93-0.46,4.62-1.4,4.9c-8.03,2.39-16.22,4.12-24.53,1.06
		c-0.61-0.23-1.25-0.39-1.85-0.64c-6.71-2.73-13.79-1.8-20.74-2.06c-3.12-0.12-7.3,0.87-9.14-0.76c-3.64-3.21-7.04-7.52-8.63-12.05
		c-2.43-6.93-4.47-13.85-10.43-18.58c-5.08-4.04-3.52-9.99-4.65-15.06c-1.26-5.69-6.99-14.5-12.66-15.2
		c-6.3-0.78-5.64-5.37-6.56-9.17c-0.49-2.05-0.49-4.4-0.02-6.45c1.36-5.96-2-9.33-6.44-11.73c-5.5-2.98-4.77-8.34-5.57-13.04
		c-1.06-6.3-0.22-13.31-2.71-18.89c-3.55-7.95-5.8-15.63-5.41-24.32c0.26-5.97-3.61-10.36-7.38-14.47c-3.12-3.4-6.58-6.5-9.93-9.69
		c-4.12-3.92-2.57-10.49,2.52-14.27c5.65-4.19,10.59-9.32,16.03-13.8c2.98-2.46,6.15-4.93,9.66-6.41c1.61-0.68,4.77,0.37,6.28,1.7
		c7.4,6.59,14.47,13.55,21.69,20.34c9.41,8.85,17.33,18.6,22.57,30.71c5.74,13.28,12.36,26.25,21.55,37.61
		C804.26,464.76,809.06,470.09,814.35,476.25z"/>
</g>
</svg>
