<?xml version="1.0" encoding="utf-8"?>
<!-- Generator: Adobe Illustrator 27.4.0, SVG Export Plug-In . SVG Version: 6.00 Build 0)  -->
<svg version="1.1" id="Capa_1" xmlns="http://www.w3.org/2000/svg" xmlns:xlink="http://www.w3.org/1999/xlink" x="0px" y="0px"
	 viewBox="0 0 1069 1238.48" style="enable-background:new 0 0 1069 1238.48;" xml:space="preserve">
<style type="text/css">
	.st0{opacity:0.6;fill:#C8D400;enable-background:new    ;}
</style>
<g id="subregiones">
	<path class="st0" d="M291.12,284.44c1.5-4.5,2.56-7.94,3.78-11.31c2.05-5.65,4.4-11.2,6.27-16.91c1.2-3.68,2.14-7.52,2.55-11.36
		c0.78-7.16,3.12-10.18,10.23-6.79c2.29,1.09,5.15,0.97,7.75,1.43c7.78,1.38,12.03,8.13,18.14,12.07
		c5.72,3.69,13.24,3.86,18.23-0.33c7.2-6.05,14.53-11.93,21.78-17.92c3.08-2.54,7.02-2.07,9.37-0.3c7.33,5.52,15.71,4.41,23.33,3.3
		c6.94-1.02,12.19-6.51,15.37-13.38c1.69-3.64,4.15-6.92,6.27-10.39c6.08,4.57,2.96,9.45,1.59,14.23
		c-2.94,10.32,0.93,19.27,6.87,27.05c2.55,3.34,7.69,4.82,11.81,6.82c2.42,1.17,5.21,1.55,7.73,2.56c6.5,2.61,6.8,8.66,7.88,14.36
		c1.15,6.12,2.51,12.21,3.97,18.26c1.43,5.95,6.68,9.18,11.42,10.23c5.68,1.25,8.62,5.43,12.93,8.02c2.11,1.27,3.97,3.23,5.43,5.25
		c1.77,2.45,4.82,6,4.1,7.8c-1.46,3.66-4.68,6.97-7.92,9.46c-2.09,1.61-5.48,1.57-8.31,2.16c-6.9,1.44-14.06,2.13-20.67,4.41
		c-6.15,2.12-5.99,8.66-6.9,14.04c-0.62,3.71-1.09,7.46-1.53,10.46c-7.06,2.6-13.66,4.59-19.88,7.43c-7.45,3.4-14.59,2.63-20.34-2.3
		c-6.37-5.46-13.32-9.69-20.62-13.52c-1.29-0.68-3.19-0.08-4.75-0.37c-7.18-1.31-14.41-2.45-21.48-4.22
		c-3.91-0.98-6.92-3.38-8.98-7.46c-2.25-4.43-6.06-8.04-8.86-12.24c-2.18-3.27-3.7-6.98-5.81-10.31c-0.96-1.52-2.43-3.32-4-3.75
		c-6.19-1.66-12.64-2.4-18.74-4.32c-3.71-1.17-7.32-3.4-10.31-5.94c-8.57-7.29-16.83-14.94-25.11-22.56
		C292.34,286.85,291.51,285,291.12,284.44z"/>
</g>
</svg>
