<?xml version="1.0" encoding="utf-8"?>
<!-- Generator: Adobe Illustrator 27.4.0, SVG Export Plug-In . SVG Version: 6.00 Build 0)  -->
<svg version="1.1" id="Capa_1" xmlns="http://www.w3.org/2000/svg" xmlns:xlink="http://www.w3.org/1999/xlink" x="0px" y="0px"
	 viewBox="0 0 1069 1238.48" style="enable-background:new 0 0 1069 1238.48;" xml:space="preserve">
<style type="text/css">
	.st0{fill:#14B900;}
</style>
<g id="litoral">
	<path class="st0" d="M918.33,513.15c-1.03-3.78-1.42-7.93-1.67-11.49l-0.03-0.39c-0.38-5.39-0.68-9.65-4.4-13
		c-3.55-3.2-7.65-3.26-13.33-3.35c-0.36-0.01-0.71-0.02-1.07-0.03c-1.07-0.04-2.28-0.09-3.64,0.01c-1.66,0.11-3.39,0.16-5.22,0.2
		c-4.71,0.12-10.06,0.25-15.27,1.78c-5.77,1.69-9.46,1.73-13.18,0.13c-3.09-1.33-6.64-2.27-10.26-2.7
		c-10.35-1.23-17.7-3.57-23.8-7.56c-0.29-0.19-0.61-0.36-0.93-0.53l-4.72-5.5c-1.7-1.98-3.35-3.88-4.96-5.73
		c-3.34-3.84-6.5-7.46-9.47-11.14c-9.42-11.63-15.83-25.15-20.36-35.63c-5.19-12.01-12.99-22.66-24.55-33.53
		c-2.26-2.13-4.51-4.27-6.75-6.41c-4.88-4.66-9.93-9.48-15.11-14.09c-3.56-3.16-10.12-5.35-15.24-3.18
		c-4.62,1.96-8.49,4.99-11.75,7.68c-2.38,1.96-4.64,4.01-6.82,5.99c-3.02,2.74-5.87,5.32-8.87,7.54c-4.93,3.65-7.95,8.96-8.29,14.56
		c-0.3,4.86,1.47,9.37,4.97,12.7c0.78,0.74,1.57,1.48,2.36,2.22c2.56,2.4,4.97,4.67,7.17,7.06c3.08,3.36,5.25,5.92,5.15,8.34
		c-0.4,9.07,1.49,17.76,6.14,28.17c0.95,2.13,1.13,5.4,1.33,8.86c0.14,2.57,0.29,5.23,0.76,7.98c0.11,0.65,0.19,1.44,0.28,2.28
		c0.44,4.29,1.25,12.29,9.62,16.82c1.83,0.99,2.27,1.62,2.29,1.62c0,0.04,0.02,0.27-0.09,0.74c-0.77,3.37-0.76,7.04,0.04,10.35
		c0.09,0.37,0.18,0.91,0.27,1.48c0.55,3.45,2,12.56,13.25,14.09c1.6,0.79,4.91,5.2,5.67,8.63c0.18,0.83,0.26,2.01,0.34,3.26
		c0.28,4.27,0.75,11.41,7.32,16.63c3.56,2.83,5.14,7.37,7.13,13.12l0.56,1.62c1.57,4.49,4.19,8.29,6.67,11.19l-4.51,0.84l4.67,9.95
		c0.44,0.94,0.88,1.83,1.3,2.69c0.77,1.58,1.44,2.94,1.92,4.2c0.32,0.86,0.67,1.72,1.01,2.59c0.97,2.42,1.88,4.7,2.12,6.58
		c0.68,5.21-1.17,10.41-3.31,16.43c-1.28,3.6-2.59,7.28-3.45,11.26c-6.31,4.29-9.05,10.11-8.15,17.32c0.16,1.29,0.11,2.89,0.06,4.59
		c-0.03,1.14-0.07,2.31-0.05,3.55c-0.2,0.22-0.51,0.54-1.01,1.03c-0.68,0.66-1.39,1.32-2.09,1.98c-5.28,4.91-12.5,11.65-12.07,23.22
		c0.03,0.84-0.57,2.75-0.89,3.77c-0.55,1.73-1.22,3.5-1.92,5.37c-1.44,3.81-2.93,7.75-3.71,12.16l-0.32,1.81
		c-1.3,7.43-2.43,13.86-5.93,19.37c-2.07,3.25-2.94,6.73-2.6,10.02c-4.91-0.43-9.51,2.34-11.46,3.73
		c-3.64,2.59-5.27,7.55-5.48,10.26c-0.21,2.81,0.71,4.86,1.68,6.2c-0.05,0.12-0.11,0.24-0.16,0.35c-0.4,0.86-0.84,1.83-1.24,2.94
		c-0.35,0.98-0.78,2.04-1.23,3.15c-1.49,3.66-3.18,7.81-3.32,12.57c-0.03,0.92-0.05,1.85-0.07,2.77
		c-0.18,7.59-0.35,14.75-3.27,20.83c-1.69,3.51-2.76,7.01-3.8,10.38c-1.51,4.92-2.82,9.16-5.65,12.28
		c-2.61,2.88-3.85,6.24-4.85,8.94c-0.33,0.9-0.65,1.75-0.96,2.42l-3.19,6.98l6.61,3.89c6.05,3.55,13.15,5.24,20.29,5.24
		c8.48,0,17-2.39,23.89-6.85l-0.04,0.13l14.26-3.1c2.62-0.57,5.39-1,8.06-1.42c9.12-1.42,19.23-3,27.26-10.63l2.03,3.66l6.48-1.84
		c1.12-0.32,2.16-0.66,3.17-1c1.67-0.55,3.26-1.08,4.47-1.21c5.49-0.62,10.21,2.33,16.04,7.28c3.97,3.38,8.48,5.13,12.85,5.13
		c2.27,0,4.51-0.47,6.61-1.44c7.38-3.38,14.95-7.54,23.14-12.71c2.71-1.71,4.81-3.8,6.67-5.65c1.43-1.42,2.79-2.77,3.94-3.43
		c8.91-5.15,21.1-12.2,25.97-27.07c1.7-5.19,3.41-13.1-1.33-21.82c-1.51-2.77-3.29-6.33-3.65-9.24
		c-1.62-13.06-7.89-23.93-18.62-32.29l-1.42-1.11c1.76-5.36,2.83-10.72,3.65-15.45c0.92-5.32,3.22-9.08,7.69-12.6
		c0.49-0.38,1.03-0.76,1.58-1.14c3.25-2.29,11.59-8.15,9.01-18.22c0.05-1.04,0.07-2.52-0.49-4.25c-0.21-0.64-0.41-1.5-0.62-2.41
		c-0.77-3.25-1.82-7.71-5.34-10.97c-3.64-3.37-8.22-4.5-11.9-5.42c-0.75-0.19-1.5-0.37-2.22-0.58c-1.9-0.54-3.9-0.46-5.87,0.24
		c-0.48-1.16-1.06-2.34-1.76-3.51c-1.1-1.85-2.27-3.48-3.41-5.06c-1.17-1.63-2.2-3.07-2.95-4.45c1.44-0.36,3.82-1.23,5.63-3.59
		c4.8-6.29,9.93-13.88,10.2-24.42c0.22-8.58,4.74-16.22,9.53-24.31c1.97-3.33,4.01-6.77,5.82-10.39c0.72-1.44,1.52-2.9,2.37-4.43
		c3.83-6.95,8.17-14.83,7.02-25.26c1-1.16,2.21-2.34,3.49-3.57c1.23-1.19,2.5-2.42,3.76-3.81l0.57-0.62
		C914.78,531.89,921.44,524.61,918.33,513.15z"
	/>
</g>
</svg>
