<?xml version="1.0" encoding="utf-8"?>
<!-- Generator: Adobe Illustrator 27.4.1, SVG Export Plug-In . SVG Version: 6.00 Build 0)  -->
<svg version="1.1" id="pacífico" xmlns="http://www.w3.org/2000/svg" xmlns:xlink="http://www.w3.org/1999/xlink" x="0px" y="0px"
	 viewBox="0 0 1069 1238.48" style="enable-background:new 0 0 1069 1238.48;" xml:space="preserve">
<style type="text/css">
	.st0{opacity:0.6;fill:#000D73;}
</style>
<path class="st0" d="M166.69,634.58c-3.29-17.44-8.06-34.61,4.07-50.41c1.01-1.32,1.76-2.85,2.81-4.13
	c6.36-7.71,5.14-15.93,0.55-23.53c-5.77-9.55-2.02-18.82-0.57-28.24c0.39-2.51,0.87-5.07,1.76-7.43
	c4.61-12.19,8.89-24.28,8.95-37.72c0.05-9.94,2.12-19.87,3.43-29.79c0.36-2.75,1.94-4.33,4.01-5.36c-0.38-0.18-0.77-0.34-1.16-0.51
	c-14.72,6-22.79-29.87-24.79-38.58c-6.49-28.22-7.48-58.3-3.26-86.9c0.67-4.54,1.86-9.67,1.09-14.27c-0.75-4.55-4.67-7.64-8.2-10.19
	c-6.9-4.99-13.8-9.94-21.17-14.23c-5.76-3.35-12.99-5.58-17.28-10.91c-6.92-8.62-3.06-21.54-11.59-29.71
	c-3.75-3.59-9.28-4.83-13.86-6.99c-6.6-3.12-11.6-8.4-17.65-12.3c-5.52-3.56-11.37-6.18-16.73-10.11c-6.43-4.71-12.6-9.1-20.2-11.74
	c-12.15-4.23-24.86-6.15-36.91-10.39v652.56c12.11,0.45,24.16,2.59,36.02,4.89c13.75,2.67,27.55,5.1,41.29,7.79
	c19.25,3.77,39.69,9.92,57,20.23c0.16-0.56,0.32-1.12,0.48-1.66c1.57-5.32,5.28-9.04,11.39-10.51c2.33-0.56,5.11-4.31,5.51-6.93
	c1.55-10.29-1.52-19.69-6.37-28.89c-2.54-4.81-3.46-10.69-4.18-16.2c-1.43-10.9,5.03-17.81,13.15-23.62
	c0.59-0.42,1.54-0.83,1.63-1.37c0.8-4.65,2.01-9.33,2.04-14c0.16-30.83-0.28-61.66,0.3-92.47c0.13-6.87,4-13.6,5.32-20.55
	L166.69,634.58z"/>
</svg>
