<?xml version="1.0" encoding="utf-8"?>
<!-- Generator: Adobe Illustrator 27.4.1, SVG Export Plug-In . SVG Version: 6.00 Build 0)  -->
<svg version="1.1" id="pacífico" xmlns="http://www.w3.org/2000/svg" xmlns:xlink="http://www.w3.org/1999/xlink" x="0px" y="0px"
	 viewBox="0 0 1069 1238.48" style="enable-background:new 0 0 1069 1238.48;" xml:space="preserve">
<style type="text/css">
	.st0{opacity:0.6;fill:#0092A2;}
</style>
<path class="st0" d="M190.53,447.45c-14.72,6-22.79-29.87-24.79-38.58c-6.49-28.22-7.48-58.3-3.26-86.9
	c0.67-4.54,1.86-9.67,1.09-14.27c-0.75-4.55-4.67-7.64-8.2-10.19c-6.9-4.99-13.8-9.94-21.17-14.23
	c-5.76-3.35-12.99-5.58-17.28-10.91c-6.92-8.62-3.06-21.54-11.59-29.71c-3.75-3.59-9.28-4.83-13.86-6.99
	c-6.6-3.12-11.6-8.4-17.65-12.3c-5.52-3.56-11.37-6.18-16.73-10.11c-6.43-4.71-12.6-9.1-20.2-11.74
	c-12.15-4.23,6.45-6.15-5.61-10.39v646.25v6.31v391.21h79.86c-1.2-1.32-2.28-2.97-3.28-4.95c-1.67-3.29-4.12-6.29-6.62-9.05
	c-7.19-7.91-8-13.01-3.42-22.82c0.39-0.84,0.32-1.91,0.53-3.35h6.42c0.03-0.19,0.06-0.37,0.09-0.56c-1.3-0.24-2.59-0.48-3.31-0.62
	c2.16-0.84,5.48-1.16,7-2.98c1.6-1.93,1.55-5.27,2.1-8.02c1.87-9.27,3.35-18.64,5.67-27.79c1.16-4.57,3.9-8.73,5.78-13.14
	c4.65-10.95,9.75-21.66,10.12-34.03c0.18-5.91,2.42-11.76,3.69-17.65c0.17-0.8,0.1-1.66,0.14-2.49c0.55-10.2,2.83-19.92,7.03-29.3
	c1.21-2.71-0.17-6.49,0.73-9.45c1.75-5.8,4.76-11.23,6.3-17.06c1.29-4.85,1.56-10.05,1.69-15.11c0.15-6.24-0.81-12.54-0.35-18.74
	c0.33-4.39,1.81-8.7,6.1-11.55c4.76-3.17,3.08-8.56,2.94-12.94c-0.17-5.64-1.22-11.35-2.67-16.82c-1.02-3.85-3.4-7.34-5.07-11.03
	c-2.95-6.49-5.99-12.95-8.68-19.55c-2.3-5.64-5.29-11.33-5.95-17.22c-0.83-7.32-4.19-13.7-5.56-20.57
	c-0.33-1.65,2.11-11.42,2.22-13.18c1.57-5.32,5.28-9.04,11.39-10.51c2.33-0.56,5.11-4.31,5.51-6.93
	c1.55-10.29-1.52-19.69-6.37-28.89c-2.54-4.81-3.46-10.69-4.18-16.2c-1.43-10.9,5.03-17.81,13.15-23.62
	c0.59-0.42,1.54-0.83,1.63-1.37c0.8-4.65,2.01-9.33,2.04-14c0.16-30.83-0.28-61.66,0.3-92.47c0.13-6.87,4-13.6,5.32-20.55
	l3.11-25.81c-3.29-17.44-8.06-34.61,4.07-50.41c1.01-1.32,1.76-2.85,2.81-4.13c6.36-7.71,5.14-15.93,0.55-23.53
	c-5.77-9.55-2.02-18.82-0.57-28.24c0.39-2.51,0.87-5.07,1.76-7.43c4.61-12.19,8.89-24.28,8.95-37.72
	c0.05-9.94,2.12-19.87,3.43-29.79c0.36-2.75,1.94-4.33,4.01-5.36C191.31,447.79,190.92,447.62,190.53,447.45z"/>
</svg>
