<?xml version="1.0" encoding="UTF-8"?>
<svg id="Capa_1" xmlns="http://www.w3.org/2000/svg" version="1.1" viewBox="0 0 515.82 515.82">
  <!-- Generator: Adobe Illustrator 29.6.1, SVG Export Plug-In . SVG Version: 2.1.1 Build 9)  -->
  <defs>
    <style>
      .st0 {
        fill: #231f20;
      }

      .st1 {
        fill: #fff;
      }
    </style>
  </defs>
  <g id="rays-16">
    <g id="rays-8">
      <g id="rays-4">
        <g id="rays-2">
          <g>
            <path class="st1" d="M245.29,257.91l9.47,251.63s0,4.73,3.16,4.73,3.16-4.73,3.16-4.73l9.47-251.63"/>
            <path class="st0" d="M245.57,257.9c3.56,42.72,5.79,86.06,6.93,128.92.5,40.31.84,80.71,3.58,120.95.09,1.34.05,3.71,1.08,4.7.96.68,1.73-.07,1.98-1.17.13-.48.21-1.05.23-1.58l.03-1.95.11-8.07c.58-36.53,1.78-76.36,3.16-112.9,1.88-43,4.15-85.98,7.59-128.9,0,0,.57.02.57.02.21,43.04-.75,86.04-2.11,129.04-1.49,39.37-3.39,81.57-5.83,120.86-.02,3.24-.77,8.01-4.96,8-4.17-.13-4.73-4.77-4.61-8-.12-7.19-.27-17-.49-24.19-1.1-48.34-6.01-96.67-6.9-145.04-.67-26.71-1.24-53.97-.91-80.67,0,0,.57-.02.57-.02h0Z"/>
          </g>
          <path class="st0" d="M251.6,257.91l6.31,172.75,6.31-172.75"/>
          <g>
            <g>
              <path class="st1" d="M234.13,339.2c-14.49,31.66-2.05,57.54-16.53,85.18-14.48,27.64-5.43,50.41-6.4,63.09s-11.35,16.21-8.73,19.15,13.47-2.89,17.7-19.74c4.23-16.85-5.87-26.55,11.49-60.45,17.36-33.9,3.57-49.18,20.99-79.44"/>
              <path class="st0" d="M234.38,339.32c-4.4,11.94-6.01,24.41-6.15,37.02-.24,10.97-.09,22.17-2.44,32.96-.87,3.67-2.03,7.26-3.46,10.76,0,0-2.48,5.08-2.48,5.08-7.11,12.42-10.39,26.69-9.34,41.03.36,10.78,4.57,22.79-2.02,32.58-1.38,2.3-3.47,4.29-4.8,6.44-.15.28-.15.48-.13.41.01-.03,0-.06.02-.04.04.04.08.06.11.09.15.09.69.17,1.34-.02,5.43-2,8.59-7.72,10.77-12.87,2.64-6.51,3.29-13.23,2.74-20.3-1.58-15.62,1.61-29.48,8.55-43.53,0,0,4.74-9.69,4.74-9.69,1.2-2.82,2.85-6.95,3.75-9.85,4.64-13.68,3.67-28.53,7.54-42.59,2-7.16,5.25-13.87,9.28-19.95l.49.28c-3.16,6.54-5.63,13.33-6.95,20.32-1.66,8.75-1.48,17.94-2.22,26.95-.62,7.41-2.08,14.87-4.53,21.9,0,0-2,5.25-2,5.25l-2.34,5.09c-3.83,7.88-7.58,16.22-9.49,24.66-1.7,6.78-1.74,13.64-1.48,20.93.1,3.65.12,7.51-.54,11.34-1.36,7.63-4.37,14.94-9.85,20.56-2.55,2.45-5.82,5.05-9.66,4.78-1.5-.12-3.18-1.34-3.3-3.02-.07-2.05,1.44-3.27,2.5-4.49,2.47-2.56,4.65-5.23,5.92-8.54,1.98-5.02,1.37-10.38.83-15.71-.36-3.61-.87-7.22-1.14-10.86-1.48-14.72.24-29.99,6.98-43.33,10.01-19.59,6.12-42.33,10.68-63.24,1.53-7.22,4.03-14.24,7.53-20.65l.52.24h0Z"/>
            </g>
            <path class="st0" d="M238.12,347.26c-11.24,31.52.6,52.44-14.49,79.16,16.77-19.13,5.71-43.91,20.36-76.35"/>
          </g>
        </g>
        <g id="rays-21" data-name="rays-2">
          <g>
            <path class="st1" d="M270.53,257.91l-9.47-251.63s0-4.73-3.16-4.73-3.16,4.73-3.16,4.73l-9.47,251.63"/>
            <path class="st0" d="M270.25,257.92c-3.56-42.72-5.79-86.06-6.93-128.92-.5-40.31-.84-80.71-3.58-120.95-.09-1.34-.05-3.71-1.08-4.7-.96-.68-1.73.07-1.98,1.17-.13.48-.21,1.05-.23,1.58l-.03,1.95-.11,8.07c-.58,36.53-1.78,76.36-3.16,112.9-1.88,43-4.15,85.98-7.59,128.9,0,0-.57-.02-.57-.02-.21-43.04.75-86.04,2.11-129.04,1.49-39.37,3.39-81.57,5.83-120.86C252.97,4.75,253.72,0,257.91,0c4.17.13,4.72,4.77,4.61,8,.12,7.19.27,17,.49,24.19,1.1,48.34,6.01,96.67,6.9,145.04.68,26.71,1.24,53.97.91,80.67,0,0-.57.02-.57.02h0Z"/>
          </g>
          <path class="st0" d="M264.22,257.91l-6.31-172.75-6.31,172.75"/>
          <g>
            <g>
              <path class="st1" d="M281.69,176.62c14.49-31.66,2.05-57.54,16.53-85.18,14.48-27.64,5.43-50.41,6.4-63.09.97-12.68,11.35-16.21,8.73-19.15-2.62-2.95-13.47,2.89-17.7,19.74s5.87,26.55-11.49,60.45c-17.36,33.9-3.57,49.18-20.99,79.44"/>
              <path class="st0" d="M281.44,176.5c4.41-11.94,6.01-24.41,6.15-37.02.24-10.97.09-22.17,2.44-32.96.87-3.67,2.03-7.26,3.46-10.76,0,0,2.48-5.08,2.48-5.08,7.11-12.42,10.39-26.69,9.34-41.03-.36-10.78-4.57-22.79,2.02-32.58,1.38-2.3,3.47-4.29,4.8-6.44.15-.28.15-.48.13-.41-.01.03,0,.06-.02.04-.04-.04-.08-.06-.11-.09-.15-.09-.69-.17-1.34.02-5.43,2-8.59,7.72-10.77,12.87-2.64,6.51-3.29,13.23-2.74,20.3,1.57,15.62-1.61,29.48-8.55,43.53,0,0-4.74,9.69-4.74,9.69-1.2,2.81-2.85,6.95-3.75,9.85-4.64,13.68-3.67,28.54-7.54,42.59-2,7.16-5.25,13.87-9.28,19.95l-.49-.28c3.16-6.54,5.63-13.33,6.95-20.32,1.66-8.75,1.48-17.94,2.22-26.95.62-7.41,2.08-14.87,4.53-21.9,0,0,2-5.25,2-5.25l2.34-5.09c3.83-7.88,7.58-16.22,9.49-24.66,1.7-6.78,1.74-13.64,1.48-20.93-.1-3.65-.12-7.51.54-11.34,1.36-7.63,4.37-14.94,9.85-20.56,2.55-2.44,5.82-5.05,9.66-4.78,1.5.12,3.18,1.34,3.3,3.02.07,2.05-1.44,3.27-2.5,4.49-2.47,2.56-4.65,5.23-5.92,8.54-1.98,5.02-1.37,10.38-.83,15.71.36,3.61.87,7.22,1.14,10.86,1.48,14.72-.24,29.99-6.98,43.33-10.01,19.59-6.12,42.33-10.68,63.24-1.53,7.22-4.03,14.24-7.53,20.65l-.52-.24h0Z"/>
            </g>
            <path class="st0" d="M277.7,168.56c11.24-31.52-.6-52.44,14.49-79.16-16.77,19.13-5.71,43.91-20.36,76.35"/>
          </g>
        </g>
      </g>
      <g id="rays-41" data-name="rays-4">
        <g id="rays-22" data-name="rays-2">
          <g>
            <path class="st1" d="M257.91,245.29L6.28,254.76s-4.73,0-4.73,3.16,4.73,3.16,4.73,3.16l251.63,9.47"/>
            <path class="st0" d="M257.92,245.57c-42.72,3.56-86.06,5.79-128.92,6.93-40.31.5-80.71.84-120.95,3.58-1.34.09-3.71.05-4.7,1.08-.68.96.07,1.73,1.17,1.98.48.13,1.05.22,1.58.23l1.95.03,8.07.11c36.53.58,76.36,1.78,112.9,3.16,43,1.88,85.98,4.15,128.9,7.59,0,0-.02.57-.02.57-43.04.21-86.04-.75-129.04-2.11-39.37-1.49-81.57-3.39-120.86-5.83-3.24-.02-8-.77-8-4.96.14-4.17,4.77-4.72,8-4.61,7.19-.12,17-.27,24.19-.49,48.34-1.1,96.67-6.01,145.04-6.9,26.71-.67,53.97-1.24,80.67-.91,0,0,.02.57.02.57h0Z"/>
          </g>
          <path class="st0" d="M257.91,251.6l-172.75,6.31,172.75,6.31"/>
          <g>
            <g>
              <path class="st1" d="M176.62,234.13c-31.66-14.49-57.54-2.05-85.18-16.53-27.64-14.48-50.41-5.43-63.09-6.4-12.68-.97-16.21-11.35-19.15-8.73-2.95,2.62,2.89,13.47,19.74,17.7,16.85,4.23,26.55-5.87,60.45,11.49,33.9,17.36,49.18,3.57,79.44,20.99"/>
              <path class="st0" d="M176.5,234.38c-11.94-4.4-24.41-6.01-37.02-6.15-10.97-.24-22.17-.09-32.96-2.44-3.67-.87-7.26-2.03-10.76-3.46,0,0-5.08-2.48-5.08-2.48-12.42-7.11-26.69-10.39-41.03-9.34-10.78.36-22.79,4.57-32.58-2.02-2.3-1.38-4.29-3.47-6.44-4.8-.28-.15-.48-.15-.41-.13.03.01.06,0,.04.02-.04.04-.06.08-.09.11-.09.15-.17.69.02,1.34,2,5.43,7.72,8.59,12.87,10.77,6.51,2.64,13.23,3.29,20.3,2.74,15.62-1.57,29.48,1.61,43.53,8.55,0,0,9.69,4.74,9.69,4.74,2.81,1.2,6.95,2.85,9.85,3.75,13.68,4.64,28.54,3.67,42.59,7.54,7.16,2,13.87,5.25,19.95,9.28l-.28.49c-6.54-3.16-13.33-5.63-20.32-6.95-8.75-1.66-17.94-1.48-26.95-2.22-7.41-.62-14.87-2.08-21.9-4.53,0,0-5.25-2-5.25-2l-5.09-2.34c-7.88-3.83-16.22-7.58-24.66-9.49-6.78-1.7-13.64-1.74-20.93-1.48-3.65.1-7.51.12-11.34-.54-7.63-1.36-14.94-4.37-20.56-9.85-2.44-2.55-5.05-5.82-4.78-9.66.12-1.5,1.34-3.18,3.02-3.3,2.05-.07,3.27,1.44,4.49,2.5,2.56,2.47,5.23,4.65,8.54,5.92,5.02,1.98,10.38,1.37,15.71.83,3.61-.36,7.22-.87,10.86-1.14,14.72-1.48,29.99.24,43.33,6.98,19.59,10.01,42.33,6.12,63.24,10.68,7.22,1.53,14.24,4.03,20.65,7.53l-.24.52h0Z"/>
            </g>
            <path class="st0" d="M168.56,238.12c-31.52-11.24-52.44.6-79.16-14.49,19.13,16.77,43.91,5.71,76.35,20.36"/>
          </g>
        </g>
        <g id="rays-23" data-name="rays-2">
          <g>
            <path class="st1" d="M257.91,270.53l251.63-9.47s4.73,0,4.73-3.16-4.73-3.16-4.73-3.16l-251.63-9.47"/>
            <path class="st0" d="M257.9,270.25c42.72-3.56,86.06-5.79,128.92-6.93,40.31-.5,80.71-.84,120.95-3.58,1.34-.09,3.71-.05,4.7-1.08.68-.96-.07-1.73-1.17-1.98-.48-.13-1.05-.22-1.58-.23l-1.95-.03-8.07-.11c-36.53-.58-76.36-1.78-112.9-3.16-43-1.88-85.98-4.15-128.9-7.59,0,0,.02-.57.02-.57,43.04-.21,86.04.75,129.04,2.11,39.37,1.49,81.57,3.39,120.86,5.83,3.24.02,8,.77,8,4.96-.14,4.17-4.77,4.72-8,4.61-7.19.12-17,.27-24.19.49-48.34,1.1-96.67,6.01-145.04,6.9-26.71.68-53.97,1.24-80.67.91,0,0-.02-.57-.02-.57h0Z"/>
          </g>
          <path class="st0" d="M257.91,264.22l172.75-6.31-172.75-6.31"/>
          <g>
            <g>
              <path class="st1" d="M339.2,281.69c31.66,14.49,57.54,2.05,85.18,16.53,27.64,14.48,50.41,5.43,63.09,6.4,12.68.97,16.21,11.35,19.15,8.73s-2.89-13.47-19.74-17.7c-16.85-4.23-26.55,5.87-60.45-11.49s-49.18-3.57-79.44-20.99"/>
              <path class="st0" d="M339.32,281.44c11.94,4.4,24.41,6.01,37.02,6.15,10.97.24,22.17.09,32.96,2.44,3.67.87,7.26,2.03,10.76,3.46,0,0,5.08,2.48,5.08,2.48,12.42,7.11,26.69,10.39,41.03,9.34,10.78-.36,22.79-4.57,32.58,2.02,2.3,1.38,4.29,3.47,6.44,4.8.28.15.48.15.41.13-.03-.01-.06,0-.04-.02.04-.04.06-.08.09-.11.09-.15.17-.69-.02-1.34-2-5.43-7.72-8.59-12.87-10.77-6.51-2.64-13.23-3.29-20.3-2.74-15.62,1.57-29.48-1.61-43.53-8.55,0,0-9.69-4.74-9.69-4.74-2.81-1.2-6.95-2.85-9.85-3.75-13.68-4.64-28.53-3.67-42.59-7.54-7.16-2-13.87-5.25-19.95-9.28l.28-.49c6.54,3.16,13.33,5.63,20.32,6.95,8.75,1.66,17.94,1.48,26.95,2.22,7.41.62,14.87,2.08,21.9,4.53,0,0,5.25,2,5.25,2l5.09,2.34c7.88,3.83,16.22,7.58,24.66,9.49,6.78,1.7,13.64,1.74,20.93,1.48,3.65-.1,7.51-.12,11.34.54,7.63,1.36,14.94,4.37,20.56,9.85,2.45,2.55,5.05,5.82,4.78,9.66-.12,1.5-1.34,3.18-3.02,3.3-2.05.07-3.27-1.44-4.49-2.5-2.56-2.47-5.23-4.65-8.54-5.92-5.02-1.98-10.38-1.37-15.71-.83-3.61.36-7.22.87-10.86,1.14-14.72,1.48-29.99-.24-43.33-6.98-19.59-10.01-42.33-6.12-63.24-10.68-7.22-1.53-14.24-4.03-20.65-7.53l.24-.52h0Z"/>
            </g>
            <path class="st0" d="M347.26,277.7c31.52,11.24,52.44-.6,79.16,14.49-19.13-16.77-43.91-5.71-76.35-20.36"/>
          </g>
        </g>
      </g>
    </g>
    <g id="rays-81" data-name="rays-8">
      <g id="rays-42" data-name="rays-4">
        <g id="rays-24" data-name="rays-2">
          <g>
            <path class="st1" d="M248.99,248.99l-171.23,184.62s-3.35,3.35-1.12,5.58c2.23,2.23,5.58-1.12,5.58-1.12l184.62-171.23"/>
            <path class="st0" d="M249.19,249.18c-27.69,32.73-56.76,64.95-86.26,96.06-28.15,28.86-56.47,57.67-83,88.05,0,0-1.31,1.47-1.31,1.47-.36.42-.69.91-.92,1.38-.88,1.6.15,2.89,1.89,1.81.43-.25.89-.59,1.28-.96l1.4-1.36,5.78-5.62c26.24-25.42,55.26-52.73,82.06-77.6,31.73-29.08,63.73-57.86,96.51-85.78,0,0,.39.42.39.42-34.06,34.32-69.12,67.84-104.57,100.72-24.92,22.9-52.41,48.03-77.75,70.37-2.31,2.28-6.21,5.11-9.16,2.14-2.85-3.04.03-6.72,2.4-8.92,5-5.17,11.83-12.21,16.76-17.45,33.41-34.96,64.11-72.61,97.68-107.44,18.41-19.36,37.28-39.04,56.4-57.69,0,0,.42.39.42.39h0Z"/>
          </g>
          <path class="st0" d="M253.45,253.45l-117.69,126.61,126.61-117.69"/>
          <g>
            <g>
              <path class="st1" d="M183.61,298.57c-32.64,12.14-42.13,39.24-71.92,48.55-29.78,9.31-39.48,31.81-49.14,40.09s-19.48,3.44-19.71,7.37,11.57,7.48,26.48-1.44c14.91-8.92,14.62-22.92,50.87-34.62,36.25-11.69,37.3-32.25,71.02-41.33"/>
              <path class="st0" d="M183.71,298.84c-11.55,5.32-21.51,13.01-30.53,21.82-7.93,7.59-15.74,15.62-25.03,21.59-3.21,1.98-6.57,3.7-10.05,5.16,0,0-5.35,1.84-5.35,1.84-13.81,3.76-26.22,11.53-35.62,22.41-7.37,7.88-12.88,19.34-24.46,21.61-2.6.65-5.48.58-7.95,1.16-.3.09-.44.23-.38.2.03-.01.04-.04.04-.01,0,.05.01.1.02.14.04.17.37.61.96.94,5.26,2.43,11.54.61,16.72-1.48,6.47-2.74,11.68-7.03,16.29-12.42,9.93-12.16,21.98-19.7,36.83-24.73,0,0,10.21-3.5,10.21-3.5,2.84-1.14,6.93-2.9,9.62-4.31,12.96-6.39,22.77-17.58,35.45-24.78,6.47-3.65,13.52-6.09,20.67-7.54l.15.55c-6.85,2.39-13.4,5.45-19.29,9.46-7.36,5.01-13.74,11.64-20.63,17.49-5.68,4.8-11.99,9.04-18.69,12.28,0,0-5.13,2.3-5.13,2.3l-5.25,1.95c-8.28,2.87-16.83,6.11-24.15,10.73-6,3.59-10.88,8.41-15.85,13.75-2.51,2.65-5.23,5.4-8.4,7.64-7.89,5.42-17.82,9.32-27.43,6.76-2.89-.67-6.83-3.87-4.48-7.09.65-.74,1.39-.97,1.95-1.12,2.87-.52,5.52-.17,8.27-.7,11.18-1.62,16.57-12.79,23.53-20.45,9.36-11.45,21.38-21.04,35.58-25.7,20.93-6.77,34.26-25.6,52.27-37.17,6.18-4.02,12.91-7.22,19.93-9.28l.2.53h0Z"/>
            </g>
            <path class="st0" d="M180.74,307.1c-30.24,14.34-36.66,37.51-66.22,45.72,25.38-1.67,35.09-27.01,68.39-39.59"/>
          </g>
        </g>
        <g id="rays-25" data-name="rays-2">
          <g>
            <path class="st1" d="M266.83,266.83l171.23-184.62s3.35-3.35,1.12-5.58c-2.23-2.23-5.58,1.12-5.58,1.12l-184.62,171.23"/>
            <path class="st0" d="M266.63,266.64c27.69-32.73,56.76-64.95,86.26-96.06,28.15-28.86,56.47-57.67,83-88.05,0,0,1.31-1.47,1.31-1.47.36-.42.69-.91.92-1.38.88-1.6-.15-2.89-1.89-1.81-.43.25-.89.59-1.28.96l-1.4,1.36-5.78,5.62c-26.24,25.42-55.26,52.73-82.06,77.6-31.73,29.08-63.73,57.86-96.51,85.78,0,0-.39-.42-.39-.42,34.06-34.32,69.12-67.84,104.57-100.72,24.92-22.91,52.41-48.03,77.75-70.37,2.31-2.28,6.21-5.11,9.16-2.14,2.85,3.04-.03,6.72-2.4,8.92-5,5.17-11.83,12.21-16.76,17.45-33.41,34.96-64.11,72.61-97.68,107.44-18.41,19.36-37.28,39.04-56.4,57.69,0,0-.42-.39-.42-.39h0Z"/>
          </g>
          <path class="st0" d="M262.37,262.37l117.69-126.61-126.61,117.69"/>
          <g>
            <g>
              <path class="st1" d="M332.21,217.25c32.64-12.14,42.13-39.24,71.92-48.55,29.78-9.31,39.48-31.81,49.14-40.09s19.48-3.44,19.71-7.37c.23-3.94-11.57-7.48-26.48,1.44-14.91,8.92-14.62,22.92-50.87,34.62-36.25,11.69-37.3,32.25-71.02,41.33"/>
              <path class="st0" d="M332.11,216.98c11.55-5.32,21.51-13.01,30.53-21.82,7.93-7.59,15.74-15.62,25.03-21.59,3.21-1.98,6.57-3.7,10.05-5.16,0,0,5.35-1.84,5.35-1.84,13.81-3.76,26.22-11.53,35.62-22.41,7.37-7.88,12.88-19.34,24.46-21.61,2.6-.65,5.48-.58,7.95-1.16.3-.09.44-.23.38-.2-.03.01-.04.04-.04.01,0-.05-.01-.1-.02-.14-.04-.17-.37-.61-.96-.94-5.26-2.43-11.54-.61-16.72,1.48-6.47,2.74-11.68,7.03-16.29,12.42-9.93,12.16-21.98,19.7-36.83,24.73,0,0-10.21,3.5-10.21,3.5-2.84,1.14-6.93,2.9-9.62,4.31-12.96,6.39-22.77,17.58-35.45,24.78-6.47,3.65-13.52,6.09-20.67,7.54l-.15-.55c6.85-2.39,13.4-5.45,19.29-9.46,7.36-5.01,13.74-11.64,20.63-17.49,5.68-4.8,11.99-9.04,18.69-12.28,0,0,5.12-2.3,5.12-2.3l5.25-1.95c8.28-2.87,16.83-6.11,24.15-10.73,6-3.59,10.88-8.41,15.85-13.75,2.51-2.65,5.23-5.4,8.4-7.64,7.89-5.42,17.82-9.32,27.43-6.76,2.89.71,6.85,3.84,4.48,7.09-.65.74-1.39.97-1.95,1.12-2.87.52-5.52.17-8.27.7-11.18,1.62-16.57,12.79-23.53,20.45-9.36,11.45-21.38,21.04-35.58,25.7-20.93,6.77-34.26,25.6-52.27,37.17-6.18,4.02-12.91,7.22-19.93,9.28l-.2-.53h0Z"/>
            </g>
            <path class="st0" d="M335.08,208.72c30.24-14.34,36.66-37.51,66.22-45.72-25.38,1.67-35.09,27.01-68.39,39.59"/>
          </g>
        </g>
      </g>
      <g id="rays-43" data-name="rays-4">
        <g id="rays-26" data-name="rays-2">
          <g>
            <path class="st1" d="M266.83,248.99L82.22,77.75s-3.35-3.35-5.58-1.12,1.12,5.58,1.12,5.58l171.23,184.62"/>
            <path class="st0" d="M266.64,249.19c-32.73-27.69-64.95-56.76-96.06-86.26-28.86-28.15-57.67-56.47-88.05-83,0,0-1.47-1.31-1.47-1.31-.42-.36-.91-.69-1.38-.92-1.6-.88-2.89.15-1.81,1.89.25.43.59.89.96,1.28l1.36,1.4,5.62,5.78c25.42,26.24,52.73,55.26,77.6,82.06,29.08,31.73,57.86,63.73,85.78,96.51,0,0-.42.39-.42.39-34.32-34.06-67.84-69.12-100.72-104.57-22.91-24.92-48.03-52.41-70.37-77.75-2.28-2.31-5.11-6.21-2.14-9.16,3.04-2.85,6.72.03,8.92,2.4,5.17,5,12.21,11.83,17.45,16.76,34.96,33.41,72.61,64.11,107.44,97.68,19.36,18.41,39.04,37.28,57.69,56.4,0,0-.39.42-.39.42h0Z"/>
          </g>
          <path class="st0" d="M262.37,253.45l-126.61-117.69,117.69,126.61"/>
          <g>
            <g>
              <path class="st1" d="M217.25,183.61c-12.14-32.64-39.24-42.13-48.55-71.92-9.31-29.78-31.81-39.48-40.09-49.14-8.28-9.65-3.44-19.48-7.37-19.71s-7.48,11.57,1.44,26.48,22.92,14.62,34.62,50.87c11.69,36.25,32.25,37.3,41.33,71.02"/>
              <path class="st0" d="M216.98,183.71c-5.32-11.55-13.01-21.51-21.82-30.53-7.59-7.93-15.62-15.74-21.59-25.03-1.98-3.21-3.7-6.57-5.16-10.05,0,0-1.84-5.35-1.84-5.35-3.76-13.81-11.53-26.22-22.41-35.62-7.88-7.37-19.34-12.88-21.61-24.46-.65-2.6-.58-5.48-1.16-7.95-.09-.3-.23-.44-.2-.38.01.03.04.04.01.04-.05,0-.1.01-.14.02-.17.04-.61.37-.94.96-2.43,5.26-.61,11.54,1.48,16.72,2.74,6.47,7.03,11.68,12.42,16.29,12.16,9.93,19.7,21.98,24.73,36.83,0,0,3.5,10.21,3.5,10.21,1.14,2.84,2.9,6.93,4.31,9.62,6.39,12.96,17.58,22.77,24.78,35.45,3.65,6.47,6.09,13.52,7.54,20.67l-.55.15c-2.39-6.85-5.45-13.4-9.46-19.29-5.01-7.36-11.64-13.74-17.49-20.63-4.8-5.68-9.04-11.99-12.28-18.69,0,0-2.3-5.13-2.3-5.13l-1.95-5.25c-2.87-8.28-6.11-16.83-10.73-24.15-3.59-6-8.41-10.88-13.75-15.85-2.65-2.51-5.4-5.23-7.64-8.4-5.42-7.89-9.32-17.82-6.76-27.43.67-2.89,3.87-6.83,7.09-4.48.74.65.97,1.39,1.12,1.95.52,2.87.17,5.52.7,8.27,1.62,11.18,12.79,16.57,20.45,23.53,11.45,9.36,21.04,21.38,25.7,35.58,6.77,20.93,25.6,34.26,37.17,52.27,4.02,6.18,7.22,12.91,9.28,19.93l-.53.2h0Z"/>
            </g>
            <path class="st0" d="M208.72,180.74c-14.34-30.24-37.51-36.66-45.72-66.22,1.67,25.38,27.01,35.09,39.59,68.39"/>
          </g>
        </g>
        <g id="rays-27" data-name="rays-2">
          <g>
            <path class="st1" d="M248.99,266.83l184.62,171.23s3.35,3.35,5.58,1.12c2.23-2.23-1.12-5.58-1.12-5.58l-171.23-184.62"/>
            <path class="st0" d="M249.18,266.63c32.73,27.69,64.95,56.76,96.06,86.26,28.86,28.15,57.67,56.47,88.05,83,0,0,1.47,1.31,1.47,1.31.42.36.91.69,1.38.92,1.6.88,2.89-.15,1.81-1.89-.25-.43-.59-.89-.96-1.28l-1.36-1.4-5.62-5.78c-25.42-26.24-52.73-55.26-77.6-82.06-29.08-31.73-57.86-63.73-85.78-96.51,0,0,.42-.39.42-.39,34.32,34.06,67.84,69.12,100.72,104.57,22.91,24.92,48.03,52.41,70.37,77.75,2.28,2.31,5.11,6.21,2.14,9.16-3.04,2.85-6.72-.03-8.92-2.4-5.17-5-12.21-11.83-17.45-16.76-34.96-33.41-72.61-64.11-107.44-97.68-19.36-18.41-39.04-37.28-57.69-56.4,0,0,.39-.42.39-.42h0Z"/>
          </g>
          <path class="st0" d="M253.45,262.37l126.61,117.69-117.69-126.61"/>
          <g>
            <g>
              <path class="st1" d="M298.57,332.21c12.14,32.64,39.24,42.13,48.55,71.92,9.31,29.78,31.81,39.48,40.09,49.14,8.28,9.65,3.44,19.48,7.37,19.71,3.94.23,7.48-11.57-1.44-26.48-8.92-14.91-22.92-14.62-34.62-50.87s-32.25-37.3-41.33-71.02"/>
              <path class="st0" d="M298.84,332.11c5.32,11.55,13.01,21.51,21.82,30.53,7.59,7.93,15.62,15.74,21.59,25.03,1.98,3.21,3.7,6.57,5.16,10.05,0,0,1.84,5.35,1.84,5.35,3.76,13.81,11.53,26.22,22.41,35.62,7.88,7.37,19.34,12.88,21.61,24.46.65,2.6.58,5.48,1.16,7.95.09.3.23.44.2.38-.01-.03-.04-.04-.01-.04.05,0,.1-.01.14-.02.17-.04.61-.37.94-.96,2.43-5.26.61-11.54-1.48-16.72-2.74-6.47-7.03-11.68-12.42-16.29-12.16-9.93-19.7-21.98-24.73-36.83,0,0-3.5-10.21-3.5-10.21-1.14-2.84-2.9-6.93-4.31-9.62-6.39-12.96-17.58-22.77-24.78-35.45-3.65-6.47-6.09-13.52-7.54-20.67l.55-.15c2.39,6.85,5.45,13.4,9.46,19.29,5.01,7.36,11.64,13.74,17.49,20.63,4.8,5.68,9.04,11.99,12.28,18.69,0,0,2.3,5.13,2.3,5.13l1.95,5.25c2.87,8.28,6.11,16.83,10.73,24.15,3.59,6,8.41,10.88,13.75,15.85,2.65,2.51,5.4,5.23,7.64,8.4,5.42,7.89,9.32,17.82,6.76,27.43-.67,2.89-3.87,6.83-7.09,4.48-.74-.65-.97-1.39-1.12-1.95-.52-2.87-.17-5.52-.7-8.27-1.62-11.18-12.79-16.57-20.45-23.53-11.45-9.36-21.04-21.38-25.7-35.58-6.77-20.93-25.6-34.26-37.17-52.27-4.02-6.18-7.22-12.91-9.28-19.93l.53-.2h0Z"/>
            </g>
            <path class="st0" d="M307.1,335.08c14.34,30.24,37.51,36.66,45.72,66.22-1.67-25.38-27.01-35.09-39.59-68.39"/>
          </g>
        </g>
      </g>
    </g>
  </g>
  <g id="rays-161" data-name="rays-16">
    <g id="rays-82" data-name="rays-8">
      <g id="rays-44" data-name="rays-4">
        <g id="rays-28" data-name="rays-2">
          <g>
            <path class="st1" d="M246.25,253.08l-87.55,236.09s-1.81,4.37,1.1,5.58c2.92,1.21,4.73-3.17,4.73-3.17l105.04-228.85"/>
            <path class="st0" d="M246.52,253.18c-13.06,40.83-27.59,81.72-42.93,121.75-14.96,37.43-30.11,74.89-42.98,113.11,0,0-.64,1.86-.64,1.86-.17.53-.28,1.11-.32,1.62-.2,1.81,1.24,2.61,2.44.95.31-.39.6-.89.82-1.37l.77-1.79,3.19-7.41c14.52-33.52,30.87-69.86,46.12-103.09,18.19-39.01,36.74-77.85,56.34-116.18,0,0,.52.24.52.24-18.33,44.74-37.9,89.12-58.06,133.07-14.26,30.7-30.04,64.43-44.91,94.77-1.26,2.99-3.78,7.1-7.65,5.49-3.8-1.72-2.54-6.22-1.19-9.16,2.64-6.69,6.25-15.81,8.81-22.53,17.49-45.08,31.44-91.61,49.13-136.64,9.6-24.93,19.5-50.33,30.03-74.88,0,0,.53.2.53.2h0Z"/>
          </g>
          <path class="st0" d="M252.08,255.5l-60.28,162.01,71.94-157.18"/>
          <g>
            <g>
              <path class="st1" d="M204.83,323.91c-25.51,23.71-23.91,52.38-47.87,72.37-23.95,20-24.31,44.5-30.06,55.84-5.75,11.35-16.68,10.63-15.39,14.36,1.29,3.73,13.55,2.48,23.91-11.47,10.36-13.95,4.74-26.77,33.75-51.45s22.12-44.07,49.8-65.36"/>
              <path class="st0" d="M205.02,324.12c-8.64,9.34-14.89,20.25-19.85,31.85-4.42,10.04-8.57,20.45-14.87,29.52-2.21,3.06-4.66,5.93-7.31,8.61,0,0-4.24,3.75-4.24,3.75-11.32,8.76-19.81,20.68-24.33,34.34-3.8,10.1-4.5,22.8-14.33,29.32-2.15,1.6-4.84,2.63-6.9,4.11-.25.2-.32.38-.28.33.02-.02.02-.05.03-.03.02.05.05.08.07.13.1.14.57.42,1.25.5,5.79.23,10.9-3.85,14.88-7.76,4.94-5.01,8.11-10.96,10.3-17.71,4.52-15.03,12.77-26.62,24.56-36.95,0,0,8.09-7.14,8.09-7.14,2.18-2.14,5.3-5.33,7.23-7.66,9.53-10.87,14.31-24.96,23.26-36.46,4.58-5.85,10.16-10.8,16.21-14.88l.35.45c-5.42,4.83-10.3,10.16-14.2,16.12-4.89,7.45-8.24,16.01-12.36,24.05-3.41,6.61-7.61,12.94-12.57,18.5,0,0-3.85,4.09-3.85,4.09l-4.11,3.81c-6.55,5.82-13.21,12.08-18.21,19.15-4.17,5.62-6.83,11.93-9.38,18.77-1.3,3.41-2.76,6.99-4.84,10.27-5.21,8.02-12.9,15.42-22.76,16.74-2.94.45-7.79-.92-6.85-4.84.72-1.92,2.59-2.47,4.03-3.2,9.77-3.88,12.88-10.15,15.52-19.82,4.89-18.33,11.33-35.1,26.14-47.83,16.74-14.27,21.86-36.76,34.07-54.34,4.17-6.08,9.17-11.61,14.86-16.2l.39.42h0Z"/>
            </g>
            <path class="st0" d="M205.44,332.89c-22.45,24.82-19.52,48.68-43.68,67.58,22.81-11.25,22.09-38.39,48.03-62.75"/>
          </g>
        </g>
        <g id="rays-29" data-name="rays-2">
          <g>
            <path class="st1" d="M269.57,262.74L357.12,26.65s1.81-4.37-1.1-5.58c-2.92-1.21-4.73,3.17-4.73,3.17l-105.04,228.85"/>
            <path class="st0" d="M269.3,262.64c13.06-40.83,27.59-81.72,42.93-121.75,14.96-37.43,30.11-74.89,42.98-113.11,0,0,.64-1.86.64-1.86.17-.53.28-1.11.32-1.62.2-1.81-1.24-2.61-2.44-.95-.31.39-.6.89-.82,1.37l-.77,1.79-3.19,7.41c-14.52,33.52-30.87,69.86-46.12,103.09-18.19,39.01-36.74,77.85-56.34,116.18,0,0-.52-.24-.52-.24,18.33-44.74,37.9-89.12,58.06-133.07,14.26-30.7,30.04-64.43,44.91-94.77,1.26-2.99,3.78-7.1,7.65-5.49,3.8,1.72,2.54,6.22,1.19,9.16-2.64,6.69-6.25,15.81-8.81,22.53-17.49,45.08-31.44,91.61-49.13,136.64-9.6,24.93-19.5,50.33-30.03,74.88,0,0-.53-.2-.53-.2h0Z"/>
          </g>
          <path class="st0" d="M263.74,260.33l60.28-162.01-71.94,157.18"/>
          <g>
            <g>
              <path class="st1" d="M310.99,191.91c25.51-23.71,23.91-52.38,47.87-72.37,23.95-20,24.31-44.5,30.06-55.84,5.75-11.35,16.68-10.63,15.39-14.36-1.29-3.73-13.55-2.48-23.91,11.47-10.36,13.95-4.74,26.77-33.75,51.45s-22.12,44.07-49.8,65.36"/>
              <path class="st0" d="M310.8,191.7c8.64-9.34,14.89-20.25,19.85-31.85,4.42-10.04,8.57-20.45,14.87-29.52,2.21-3.06,4.66-5.93,7.31-8.61,0,0,4.24-3.75,4.24-3.75,11.32-8.76,19.81-20.68,24.33-34.34,3.8-10.1,4.5-22.8,14.33-29.32,2.15-1.6,4.84-2.63,6.9-4.11.25-.2.32-.38.28-.33-.02.02-.02.05-.03.03-.02-.05-.05-.08-.07-.13-.1-.14-.57-.42-1.25-.5-5.79-.23-10.9,3.85-14.88,7.76-4.94,5.01-8.11,10.96-10.3,17.71-4.52,15.03-12.77,26.62-24.56,36.95,0,0-8.09,7.14-8.09,7.14-2.18,2.14-5.3,5.33-7.23,7.66-9.53,10.87-14.31,24.96-23.26,36.46-4.58,5.85-10.16,10.8-16.21,14.88l-.35-.45c5.42-4.83,10.3-10.16,14.2-16.12,4.89-7.45,8.24-16.01,12.36-24.05,3.41-6.61,7.61-12.94,12.57-18.5,0,0,3.85-4.09,3.85-4.09l4.11-3.81c6.55-5.82,13.21-12.08,18.21-19.15,4.17-5.62,6.83-11.93,9.38-18.77,1.3-3.41,2.76-6.99,4.84-10.27,5.21-8.02,12.9-15.42,22.76-16.74,2.94-.45,7.79.92,6.85,4.84-.72,1.92-2.59,2.47-4.03,3.2-9.77,3.88-12.88,10.15-15.52,19.82-4.89,18.33-11.33,35.1-26.14,47.83-16.74,14.27-21.86,36.76-34.07,54.34-4.17,6.08-9.17,11.61-14.86,16.2l-.39-.42h0Z"/>
            </g>
            <path class="st0" d="M310.38,182.94c22.45-24.82,19.52-48.68,43.68-67.58-22.81,11.25-22.09,38.39-48.03,62.75"/>
          </g>
        </g>
      </g>
      <g id="rays-45" data-name="rays-4">
        <g id="rays-210" data-name="rays-2">
          <g>
            <path class="st1" d="M262.74,246.25L26.65,158.7s-4.37-1.81-5.58,1.1c-1.21,2.92,3.17,4.73,3.17,4.73l228.85,105.04"/>
            <path class="st0" d="M262.64,246.52c-40.83-13.06-81.72-27.59-121.75-42.93-37.43-14.96-74.89-30.11-113.11-42.98,0,0-1.86-.64-1.86-.64-.53-.17-1.1-.28-1.62-.32-1.81-.2-2.61,1.24-.95,2.44.39.31.89.6,1.37.82l1.79.77,7.41,3.19c33.52,14.52,69.86,30.87,103.09,46.12,39.01,18.19,77.85,36.74,116.18,56.34,0,0-.24.52-.24.52-44.74-18.33-89.12-37.9-133.07-58.06-30.7-14.26-64.43-30.04-94.77-44.91-2.99-1.26-7.1-3.78-5.49-7.65,1.72-3.8,6.22-2.54,9.16-1.19,6.69,2.64,15.81,6.25,22.53,8.81,45.08,17.49,91.61,31.44,136.64,49.13,24.93,9.6,50.33,19.5,74.88,30.03,0,0-.2.53-.2.53h0Z"/>
          </g>
          <path class="st0" d="M260.33,252.08l-162.01-60.28,157.18,71.94"/>
          <g>
            <g>
              <path class="st1" d="M191.91,204.83c-23.71-25.51-52.38-23.91-72.37-47.87-20-23.95-44.5-24.31-55.84-30.06-11.35-5.75-10.63-16.68-14.36-15.39s-2.48,13.55,11.47,23.91c13.95,10.36,26.77,4.74,51.45,33.75s44.07,22.12,65.36,49.8"/>
              <path class="st0" d="M191.7,205.02c-9.34-8.64-20.25-14.89-31.85-19.85-10.04-4.42-20.45-8.57-29.52-14.87-3.06-2.21-5.93-4.66-8.61-7.31,0,0-3.75-4.24-3.75-4.24-8.76-11.32-20.68-19.81-34.34-24.33-10.1-3.8-22.8-4.5-29.32-14.33-1.6-2.15-2.63-4.84-4.11-6.9-.2-.25-.38-.32-.33-.28.02.02.05.02.03.03-.05.02-.08.05-.13.07-.14.1-.42.57-.5,1.25-.23,5.79,3.85,10.9,7.76,14.88,5.01,4.94,10.96,8.11,17.71,10.3,15.03,4.52,26.62,12.77,36.95,24.56,0,0,7.14,8.09,7.14,8.09,2.14,2.18,5.33,5.3,7.66,7.23,10.87,9.53,24.96,14.31,36.46,23.26,5.85,4.59,10.8,10.16,14.88,16.21l-.45.35c-4.83-5.42-10.16-10.3-16.12-14.2-7.45-4.89-16.01-8.24-24.05-12.36-6.61-3.41-12.94-7.61-18.5-12.57,0,0-4.09-3.85-4.09-3.85l-3.81-4.11c-5.82-6.55-12.08-13.21-19.15-18.21-5.62-4.17-11.93-6.83-18.77-9.38-3.41-1.3-6.99-2.76-10.27-4.84-8.02-5.21-15.42-12.9-16.74-22.76-.45-2.94.92-7.79,4.84-6.85,1.92.72,2.47,2.59,3.2,4.03,3.88,9.77,10.15,12.88,19.82,15.52,18.33,4.89,35.1,11.33,47.84,26.14,14.27,16.74,36.76,21.86,54.34,34.07,6.08,4.17,11.61,9.17,16.2,14.86l-.42.39h0Z"/>
            </g>
            <path class="st0" d="M182.94,205.44c-24.82-22.45-48.68-19.52-67.58-43.68,11.25,22.81,38.39,22.09,62.75,48.03"/>
          </g>
        </g>
        <g id="rays-211" data-name="rays-2">
          <g>
            <path class="st1" d="M253.08,269.57l236.09,87.55s4.37,1.81,5.58-1.1-3.17-4.73-3.17-4.73l-228.85-105.04"/>
            <path class="st0" d="M253.18,269.3c40.83,13.06,81.72,27.59,121.75,42.93,37.43,14.96,74.89,30.11,113.11,42.98,0,0,1.86.64,1.86.64.53.17,1.11.28,1.62.32,1.81.2,2.61-1.24.95-2.44-.39-.31-.89-.6-1.37-.82l-1.79-.77-7.41-3.19c-33.52-14.52-69.86-30.87-103.09-46.12-39.01-18.19-77.85-36.74-116.18-56.34,0,0,.24-.52.24-.52,44.74,18.33,89.12,37.9,133.07,58.06,30.7,14.26,64.43,30.04,94.77,44.91,2.99,1.26,7.1,3.78,5.49,7.65-1.72,3.8-6.22,2.54-9.16,1.19-6.69-2.64-15.81-6.25-22.53-8.81-45.08-17.49-91.61-31.44-136.64-49.13-24.93-9.6-50.33-19.5-74.88-30.03,0,0,.2-.53.2-.53h0Z"/>
          </g>
          <path class="st0" d="M255.5,263.74l162.01,60.28-157.18-71.94"/>
          <g>
            <g>
              <path class="st1" d="M323.91,310.99c23.71,25.51,52.38,23.91,72.37,47.87,20,23.95,44.5,24.31,55.84,30.06,11.35,5.75,10.63,16.68,14.36,15.39,3.73-1.29,2.48-13.55-11.47-23.91-13.95-10.36-26.77-4.74-51.45-33.75s-44.07-22.12-65.36-49.8"/>
              <path class="st0" d="M324.12,310.8c9.34,8.64,20.25,14.89,31.85,19.85,10.04,4.42,20.45,8.57,29.52,14.87,3.06,2.21,5.93,4.66,8.61,7.31,0,0,3.75,4.24,3.75,4.24,8.76,11.32,20.68,19.81,34.34,24.33,10.1,3.8,22.8,4.5,29.32,14.33,1.6,2.15,2.63,4.84,4.11,6.9.2.25.38.32.33.28-.02-.02-.05-.02-.03-.03.05-.02.08-.05.13-.07.14-.1.42-.57.5-1.25.23-5.79-3.85-10.9-7.76-14.88-5.01-4.94-10.96-8.11-17.71-10.3-15.03-4.52-26.62-12.77-36.95-24.56,0,0-7.14-8.09-7.14-8.09-2.14-2.18-5.33-5.3-7.66-7.23-10.87-9.53-24.96-14.31-36.46-23.26-5.85-4.59-10.8-10.16-14.88-16.21l.45-.35c4.83,5.42,10.16,10.3,16.12,14.2,7.45,4.89,16.01,8.24,24.05,12.36,6.61,3.41,12.94,7.61,18.5,12.57,0,0,4.09,3.85,4.09,3.85l3.81,4.11c5.82,6.55,12.08,13.21,19.15,18.21,5.62,4.17,11.93,6.83,18.77,9.38,3.41,1.3,6.99,2.76,10.27,4.84,8.02,5.21,15.42,12.9,16.74,22.76.45,2.94-.92,7.79-4.84,6.85-1.92-.72-2.47-2.59-3.2-4.03-3.88-9.77-10.15-12.88-19.82-15.52-18.33-4.89-35.1-11.33-47.84-26.14-14.27-16.74-36.76-21.86-54.34-34.07-6.08-4.17-11.61-9.17-16.2-14.86l.42-.39h0Z"/>
            </g>
            <path class="st0" d="M332.89,310.38c24.82,22.45,48.68,19.52,67.58,43.68-11.25-22.81-38.39-22.09-62.75-48.03"/>
          </g>
        </g>
      </g>
    </g>
    <g id="rays-83" data-name="rays-8">
      <g id="rays-46" data-name="rays-4">
        <g id="rays-212" data-name="rays-2">
          <g>
            <path class="st1" d="M253.08,246.25L24.23,351.29s-4.37,1.81-3.17,4.73,5.58,1.1,5.58,1.1l236.09-87.55"/>
            <path class="st0" d="M253.2,246.51c-38.11,19.64-77.29,38.28-116.45,55.73-37.05,15.89-74.24,31.67-110.37,49.59,0,0-1.77.86-1.77.86-.5.25-.98.58-1.37.92-1.43,1.14-.97,2.73,1.05,2.4.5-.06,1.05-.2,1.55-.39l1.81-.72,7.49-2.98c33.97-13.44,71.23-27.57,105.51-40.29,40.45-14.72,81.03-29.07,121.99-42.31,0,0,.2.53.2.53-44.6,18.68-89.82,36.22-135.15,53.04-31.79,11.62-66.8,24.32-98.77,35.26-2.24.78-4.67,1.76-7.09.76-3.21-1.43-3.21-5.65-.48-7.54.96-.87,2.73-1.55,3.92-2.07,6.6-2.86,15.6-6.76,22.16-9.71,44.24-19.51,87.01-42.55,131.35-61.88,24.42-10.84,49.38-21.8,74.18-31.71,0,0,.24.52.24.52h0Z"/>
          </g>
          <path class="st0" d="M255.5,252.08l-157.18,71.94,162.01-60.28"/>
          <g>
            <g>
              <path class="st1" d="M173.71,267.05c-34.8-1.27-53.94,20.13-85.02,17.33-31.08-2.8-48.65,14.28-60.74,18.24s-19.31-4.28-21.03-.73c-1.72,3.55,7.83,11.34,25.01,8.8,17.19-2.54,22.28-15.58,60.25-12.51s46.8-15.53,81.43-11.01"/>
              <path class="st0" d="M173.7,267.33c-12.71.5-24.85,3.79-36.56,8.48-10.23,3.98-20.52,8.4-31.39,10.36-3.73.6-7.49.9-11.26.92,0,0-5.65-.35-5.65-.35-14.2-1.81-28.63.61-41.48,7.07-9.83,4.46-19.3,12.94-30.87,10.6-2.65-.39-5.29-1.56-7.79-1.97-.32-.03-.5.04-.43.04.03,0,.05-.02.04,0-.02.05-.02.09-.04.14-.02.17.11.71.53,1.23,3.93,4.25,10.43,4.98,16.01,5.03,7.03-.05,13.48-2.02,19.81-5.24,13.82-7.43,27.85-9.79,43.49-8.76,0,0,10.77.67,10.77.67,3.06.03,7.52-.02,10.53-.31,14.42-.95,27.77-7.53,42.23-9.33,7.38-.89,14.82-.46,21.98.94l-.07.56c-7.25-.41-14.47-.1-21.44,1.36-8.72,1.81-17.14,5.49-25.75,8.26-7.08,2.26-14.53,3.77-21.97,4.19,0,0-5.62.17-5.62.17l-5.6-.21c-8.75-.52-17.89-.8-26.42.67-6.92,1.02-13.27,3.61-19.9,6.64-3.33,1.49-6.9,2.99-10.68,3.85-9.36,1.99-20.03,1.79-27.93-4.26-2.4-1.76-4.86-6.16-1.42-8.27,1.87-.85,3.57.08,5.11.59,9.61,4.16,16.32,1.92,24.99-3.04,16.42-9.5,32.83-16.81,52.31-15.34,21.92,1.75,41.45-10.54,62.51-14.33,7.25-1.35,14.69-1.73,21.96-.94l-.02.57h0Z"/>
            </g>
            <path class="st0" d="M167.79,273.82c-33.42,1.68-48.22,20.62-78.68,16.9,24.09,8.17,42.76-11.53,78.33-10.41"/>
          </g>
        </g>
        <g id="rays-213" data-name="rays-2">
          <g>
            <path class="st1" d="M262.74,269.57l228.85-105.04s4.37-1.81,3.17-4.73c-1.21-2.92-5.58-1.1-5.58-1.1l-236.09,87.55"/>
            <path class="st0" d="M262.62,269.31c38.11-19.64,77.29-38.28,116.45-55.73,37.05-15.89,74.24-31.67,110.37-49.59,0,0,1.77-.86,1.77-.86.49-.25.98-.58,1.37-.92,1.42-1.14.97-2.73-1.05-2.4-.5.06-1.05.2-1.55.39l-1.81.72-7.49,2.98c-33.97,13.44-71.23,27.57-105.51,40.29-40.45,14.72-81.03,29.07-121.99,42.31,0,0-.2-.53-.2-.53,44.6-18.68,89.82-36.22,135.15-53.04,31.79-11.62,66.8-24.32,98.77-35.26,2.24-.78,4.67-1.76,7.09-.76,3.21,1.43,3.21,5.65.48,7.54-.96.87-2.73,1.55-3.92,2.07-6.6,2.86-15.6,6.76-22.16,9.71-44.24,19.51-87.01,42.55-131.35,61.88-24.42,10.84-49.38,21.8-74.18,31.71,0,0-.24-.52-.24-.52h0Z"/>
          </g>
          <path class="st0" d="M260.33,263.74l157.18-71.94-162.01,60.28"/>
          <g>
            <g>
              <path class="st1" d="M342.12,248.77c34.8,1.27,53.94-20.13,85.02-17.33,31.08,2.8,48.65-14.28,60.74-18.24,12.09-3.96,19.31,4.28,21.03.73s-7.83-11.34-25.01-8.8c-17.19,2.54-22.28,15.58-60.25,12.51-37.96-3.07-46.8,15.53-81.43,11.01"/>
              <path class="st0" d="M342.13,248.49c12.71-.5,24.85-3.79,36.56-8.48,10.23-3.98,20.52-8.4,31.39-10.36,3.73-.6,7.49-.9,11.26-.92,0,0,5.65.35,5.65.35,14.2,1.81,28.63-.61,41.48-7.07,9.83-4.46,19.3-12.94,30.87-10.6,2.65.39,5.29,1.56,7.79,1.97.32.03.5-.04.43-.04-.03,0-.05.02-.04,0,.02-.05.02-.09.04-.14.03-.17-.11-.71-.53-1.23-3.93-4.25-10.43-4.98-16.01-5.03-7.03.05-13.48,2.02-19.81,5.24-13.83,7.43-27.85,9.79-43.49,8.76,0,0-10.77-.67-10.77-.67-3.06-.03-7.52.02-10.53.31-14.42.95-27.77,7.53-42.23,9.33-7.38.89-14.82.46-21.98-.94l.07-.56c7.25.41,14.47.1,21.44-1.36,8.72-1.81,17.14-5.49,25.75-8.26,7.08-2.26,14.53-3.77,21.97-4.19,0,0,5.62-.17,5.62-.17l5.6.21c8.75.52,17.89.8,26.42-.67,6.92-1.02,13.27-3.61,19.9-6.64,3.33-1.49,6.9-2.99,10.68-3.85,9.36-1.99,20.03-1.79,27.93,4.26,2.4,1.76,4.86,6.16,1.42,8.27-1.87.85-3.57-.08-5.11-.59-9.6-4.16-16.32-1.92-24.99,3.04-16.42,9.5-32.83,16.81-52.31,15.34-21.92-1.75-41.45,10.54-62.51,14.33-7.25,1.35-14.69,1.73-21.96.94l.02-.57h0Z"/>
            </g>
            <path class="st0" d="M348.03,242c33.42-1.68,48.22-20.62,78.68-16.9-24.09-8.17-42.76,11.53-78.33,10.41"/>
          </g>
        </g>
      </g>
      <g id="rays-47" data-name="rays-4">
        <g id="rays-214" data-name="rays-2">
          <g>
            <path class="st1" d="M269.57,253.08L164.53,24.23s-1.81-4.37-4.73-3.17c-2.92,1.21-1.1,5.58-1.1,5.58l87.55,236.09"/>
            <path class="st0" d="M269.31,253.2c-19.64-38.11-38.28-77.29-55.73-116.45-15.89-37.05-31.66-74.24-49.59-110.37,0,0-.86-1.77-.86-1.77-.25-.5-.58-.98-.92-1.37-1.14-1.42-2.73-.97-2.4,1.05.06.5.2,1.05.39,1.55l.72,1.81,2.98,7.49c13.44,33.97,27.57,71.23,40.29,105.51,14.72,40.45,29.07,81.03,42.31,121.99,0,0-.53.2-.53.2-18.68-44.6-36.22-89.82-53.04-135.15-11.62-31.79-24.32-66.8-35.26-98.77-.78-2.24-1.76-4.67-.76-7.09,1.43-3.21,5.65-3.21,7.54-.48.87.96,1.55,2.73,2.07,3.92,2.86,6.6,6.76,15.6,9.71,22.16,19.51,44.24,42.55,87.01,61.88,131.35,10.84,24.42,21.8,49.38,31.71,74.18,0,0-.52.24-.52.24h0Z"/>
          </g>
          <path class="st0" d="M263.74,255.5l-71.94-157.18,60.28,162.01"/>
          <g>
            <g>
              <path class="st1" d="M248.77,173.71c1.27-34.8-20.13-53.94-17.33-85.02,2.8-31.08-14.28-48.65-18.24-60.74-3.96-12.09,4.28-19.31.73-21.03-3.55-1.72-11.34,7.83-8.8,25.01,2.54,17.19,15.58,22.28,12.51,60.25-3.07,37.96,15.53,46.8,11.01,81.43"/>
              <path class="st0" d="M248.49,173.7c-.5-12.71-3.79-24.85-8.48-36.56-3.98-10.23-8.4-20.52-10.36-31.39-.6-3.73-.9-7.49-.92-11.26,0,0,.35-5.65.35-5.65,1.81-14.2-.61-28.63-7.07-41.48-4.46-9.83-12.94-19.3-10.6-30.87.39-2.65,1.56-5.29,1.97-7.79.03-.32-.04-.5-.04-.43,0,.03.02.05,0,.04-.05-.02-.09-.02-.14-.04-.17-.03-.71.11-1.23.53-4.25,3.93-4.98,10.43-5.03,16.01.05,7.03,2.02,13.48,5.24,19.81,7.43,13.82,9.79,27.85,8.76,43.49,0,0-.67,10.77-.67,10.77-.03,3.06.02,7.52.31,10.53.95,14.42,7.53,27.77,9.33,42.23.89,7.38.46,14.82-.94,21.98l-.56-.07c.41-7.25.1-14.47-1.36-21.44-1.81-8.72-5.49-17.14-8.26-25.75-2.26-7.08-3.77-14.53-4.19-21.97,0,0-.17-5.62-.17-5.62l.21-5.6c.52-8.75.8-17.89-.67-26.42-1.02-6.92-3.61-13.27-6.64-19.9-1.49-3.33-2.99-6.9-3.85-10.68-1.99-9.36-1.79-20.03,4.26-27.93,1.76-2.4,6.16-4.86,8.27-1.42.85,1.87-.08,3.57-.59,5.11-4.16,9.6-1.92,16.32,3.04,24.99,9.5,16.42,16.81,32.83,15.34,52.31-1.75,21.92,10.54,41.45,14.33,62.51,1.35,7.25,1.73,14.69.94,21.96l-.57-.02h0Z"/>
            </g>
            <path class="st0" d="M242,167.79c-1.68-33.42-20.62-48.22-16.9-78.68-8.17,24.09,11.53,42.76,10.41,78.33"/>
          </g>
        </g>
        <g id="rays-215" data-name="rays-2">
          <g>
            <path class="st1" d="M246.25,262.74l105.04,228.85s1.81,4.37,4.73,3.17c2.92-1.21,1.1-5.58,1.1-5.58l-87.55-236.09"/>
            <path class="st0" d="M246.51,262.62c19.64,38.11,38.28,77.29,55.73,116.45,15.89,37.05,31.66,74.24,49.59,110.37,0,0,.86,1.77.86,1.77.25.5.58.98.92,1.37,1.14,1.42,2.73.97,2.4-1.05-.06-.5-.2-1.05-.39-1.55l-.72-1.81-2.98-7.49c-13.44-33.97-27.57-71.23-40.29-105.51-14.72-40.45-29.07-81.03-42.31-121.99,0,0,.53-.2.53-.2,16.66,39.69,32.23,79.78,47.43,120.03,13.69,36.94,28.08,76.66,40.87,113.89.78,2.24,1.76,4.67.76,7.09-1.43,3.21-5.65,3.21-7.54.48-.87-.96-1.55-2.73-2.07-3.92-2.86-6.6-6.76-15.6-9.71-22.16-19.51-44.24-42.55-87.01-61.88-131.35-10.84-24.42-21.8-49.38-31.71-74.18,0,0,.52-.24.52-.24h0Z"/>
          </g>
          <path class="st0" d="M252.08,260.33l71.94,157.18-60.28-162.01"/>
          <g>
            <g>
              <path class="st1" d="M267.05,342.12c-1.27,34.8,20.13,53.94,17.33,85.02s14.28,48.65,18.24,60.74-4.28,19.31-.73,21.03c3.55,1.72,11.34-7.83,8.8-25.01-2.54-17.19-15.58-22.28-12.51-60.25,3.07-37.96-15.53-46.8-11.01-81.43"/>
              <path class="st0" d="M267.33,342.13c.5,12.71,3.79,24.85,8.48,36.56,3.98,10.23,8.4,20.52,10.36,31.39.6,3.73.9,7.49.92,11.26,0,0-.35,5.65-.35,5.65-1.81,14.2.62,28.63,7.07,41.48,4.46,9.83,12.94,19.3,10.6,30.87-.39,2.65-1.56,5.29-1.97,7.79-.03.32.04.5.04.43,0-.03-.02-.05,0-.04.05.02.09.02.14.04.17.03.71-.11,1.23-.53,4.25-3.93,4.98-10.43,5.03-16.01-.05-7.03-2.02-13.48-5.24-19.81-7.43-13.83-9.79-27.85-8.76-43.49,0,0,.67-10.77.67-10.77.03-3.06-.02-7.52-.31-10.53-.95-14.42-7.53-27.77-9.33-42.23-.89-7.38-.46-14.82.94-21.98l.56.07c-.41,7.25-.1,14.47,1.36,21.44,1.81,8.72,5.49,17.14,8.26,25.75,2.26,7.08,3.77,14.53,4.19,21.97,0,0,.17,5.62.17,5.62l-.21,5.6c-.52,8.75-.8,17.89.67,26.42,1.02,6.92,3.61,13.27,6.64,19.9,1.49,3.33,2.99,6.9,3.85,10.68,1.99,9.36,1.79,20.03-4.26,27.93-1.76,2.4-6.16,4.86-8.27,1.42-.85-1.87.08-3.57.59-5.11,4.16-9.6,1.92-16.32-3.04-24.99-9.5-16.42-16.81-32.83-15.34-52.31,1.75-21.92-10.54-41.45-14.33-62.51-1.35-7.25-1.73-14.69-.94-21.96l.57.02h0Z"/>
            </g>
            <path class="st0" d="M273.82,348.03c1.68,33.42,20.62,48.22,16.9,78.68,8.17-24.09-11.53-42.76-10.41-78.33"/>
          </g>
        </g>
      </g>
    </g>
  </g>
  <g>
    <circle class="st1" cx="257.91" cy="257.91" r="102.54"/>
    <path class="st0" d="M257.91,154.94c40.82-.15,80.24,25.4,96.22,63.11,29.62,68.57-21.81,145.49-96.22,145.8-75.71.69-128.67-76.64-98.01-146.54,16.54-38.02,56.84-63.06,98.01-62.37h0ZM257.91,155.79c-40.36-.09-77.54,26.69-91.49,64.23-25.16,64.63,21.47,136.5,91.49,137.03,89.57-.2,133.24-106.52,71.88-171.02-18.53-19.33-45.09-30.51-71.88-30.24h0Z"/>
  </g>
  <g id="face_right">
    <path id="eyebrow_nose" class="st0" d="M322.59,235.82c-18.14-15.78-41.02-18.14-53.64-6.31-9.16,12.25-8.34,26.67,2.37,41.81-.79,0-2.37.79-3.16,1.58-7.96-15.15-9.32-30.75-3.94-44.96,17.35-14.2,41.02-15.78,58.37,7.89"/>
    <path id="uppalpebra" class="st0" d="M294.2,231.09c-10.25,0-12.62,2.37-17.35,6.31s-7.1,3.16-7.89,3.94,0,3.16,1.58,2.37,4.73-2.37,9.47-6.31,9.47-3.94,14.2-3.94c14.2,0,22.09,11.83,23.66,11.04s-7.89-13.41-23.66-13.41"/>
    <path id="upeyecontour" class="st0" d="M312.34,244.5c-10.25-11.04-29.19-11.83-37.07.79h3.16c7.89-12.62,26.82-7.1,28.4-1.58v1.58"/>
    <circle id="pupil" class="st0" cx="292.62" cy="243.71" r="7.1"/>
    <path id="loweyecontour" class="st0" d="M275.26,245.29c7.89,7.1,25.24,7.89,37.07-.79l-5.52-.79c-7.89,8.68-20.51,7.89-28.4,1.58v-1.58"/>
    <path id="lowpalpebra" class="st0" d="M313.13,248.45c-13.41,10.25-26.82,9.47-34.71,4.73-7.89-4.73-7.89-6.31-6.31-6.31s3.16,1.58,9.47,4.73c6.31,3.16,15.78,3.16,31.55-3.16"/>
    <path id="nose" class="st0" d="M274.48,272.11c2.46.88,3.75,3.58,2.87,6.04-.88,2.46-3.58,3.75-6.04,2.87-1.79-.64-3.03-2.29-3.14-4.19-.79,1.58-3.94,6.31-10.25,6.31h-1.58l1.58,2.37c1.58,0,6.31,0,9.47-2.37,2.24,3.22,6.67,4.01,9.88,1.76,3.22-2.24,4.01-6.67,1.76-9.88-1.07-1.54-2.71-2.59-4.55-2.92"/>
    <path id="uplip1" class="st0" d="M283.94,305.24c-7.1-4.73-10.25-11.83-18.14-11.83-1.58,0-4.73.79-7.89,2.37h-1.58l1.58,2.37c3.16,0,7.89-3.94,13.41-.79s8.68,6.31,12.62,7.89"/>
    <path id="midlip" class="st0" d="M281.57,305.24c-15.78-4.73-18.93-1.58-23.66-1.58h-1.58l1.58,3.16c6.31,0,9.47-4.73,23.66-1.58"/>
    <path id="uplip2" class="st0" d="M283.94,305.24c-17.35-1.58-11.83,8.68-26.03,8.68h-1.58l1.58,2.37c17.35,0,9.47-9.47,26.03-11.04"/>
    <path id="chin" class="st0" d="M272.11,330.48c0-7.84-6.36-14.2-14.2-14.2s-14.2,6.36-14.2,14.2h0c1.86-7.84,9.73-12.69,17.57-10.83,5.37,1.27,9.56,5.46,10.83,10.83"/>
  </g>
  <g id="face_right1" data-name="face_right">
    <path id="eyebrow_nose1" data-name="eyebrow_nose" class="st0" d="M193.23,235.82c18.14-15.78,41.02-18.14,53.64-6.31,9.16,12.25,8.34,26.67-2.37,41.81.79,0,2.37.79,3.16,1.58,7.96-15.15,9.32-30.75,3.94-44.96-17.35-14.2-41.02-15.78-58.37,7.89"/>
    <path id="uppalpebra1" data-name="uppalpebra" class="st0" d="M221.63,231.09c10.25,0,12.62,2.37,17.35,6.31s7.1,3.16,7.89,3.94,0,3.16-1.58,2.37-4.73-2.37-9.47-6.31-9.47-3.94-14.2-3.94c-14.2,0-22.09,11.83-23.66,11.04s7.89-13.41,23.66-13.41"/>
    <path id="upeyecontour1" data-name="upeyecontour" class="st0" d="M203.48,244.5c10.25-11.04,29.19-11.83,37.07.79h-3.16c-7.89-12.62-26.82-7.1-28.4-1.58v1.58"/>
    <circle id="pupil1" data-name="pupil" class="st0" cx="223.2" cy="243.71" r="7.1"/>
    <path id="loweyecontour1" data-name="loweyecontour" class="st0" d="M240.56,245.29c-7.89,7.1-25.24,7.89-37.07-.79l5.52-.79c7.89,8.68,20.51,7.89,28.4,1.58v-1.58"/>
    <path id="lowpalpebra1" data-name="lowpalpebra" class="st0" d="M202.69,248.45c13.41,10.25,26.82,9.47,34.71,4.73,7.89-4.73,7.89-6.31,6.31-6.31s-3.16,1.58-9.47,4.73c-6.31,3.16-15.78,3.16-31.55-3.16"/>
    <path id="nose1" data-name="nose" class="st0" d="M241.35,272.11c-2.46.88-3.75,3.58-2.87,6.04.88,2.46,3.58,3.75,6.04,2.87,1.79-.64,3.03-2.29,3.14-4.19.79,1.58,3.94,6.31,10.25,6.31h1.58l-1.58,2.37c-1.58,0-6.31,0-9.47-2.37-2.24,3.22-6.67,4.01-9.88,1.76-3.22-2.24-4.01-6.67-1.76-9.88,1.07-1.54,2.71-2.59,4.55-2.92"/>
    <path id="uplip11" data-name="uplip1" class="st0" d="M231.88,305.24c7.1-4.73,10.25-11.83,18.14-11.83,1.58,0,4.73.79,7.89,2.37h1.58l-1.58,2.37c-3.16,0-7.89-3.94-13.41-.79s-8.68,6.31-12.62,7.89"/>
    <path id="midlip1" data-name="midlip" class="st0" d="M234.25,305.24c15.78-4.73,18.93-1.58,23.66-1.58h1.58l-1.58,3.16c-6.31,0-9.47-4.73-23.66-1.58"/>
    <path id="uplip21" data-name="uplip2" class="st0" d="M231.88,305.24c17.35-1.58,11.83,8.68,26.03,8.68h1.58l-1.58,2.37c-17.35,0-9.47-9.47-26.03-11.04"/>
    <path id="chin1" data-name="chin" class="st0" d="M243.71,330.48c0-7.84,6.36-14.2,14.2-14.2s14.2,6.36,14.2,14.2h0c-1.86-7.84-9.73-12.69-17.57-10.83-5.37,1.27-9.56,5.46-10.83,10.83"/>
  </g>
</svg>